<?xml version="1.0" encoding="UTF-8"?>
<!--Generator: Apple Native CoreSVG 123-->
<!DOCTYPE svg
PUBLIC "-//W3C//DTD SVG 1.1//EN"
       "http://www.w3.org/Graphics/SVG/1.1/DTD/svg11.dtd">
<svg version="1.1" xmlns="http://www.w3.org/2000/svg" xmlns:xlink="http://www.w3.org/1999/xlink" width="3300" height="2200">
 <!--glyph: "uni10023F.medium", point size: 100.000000, font version: "Version 15.0d7e11", template writer version: "5"-->
 <g id="Notes">
  <rect height="2200" id="artboard" style="fill:white;opacity:1" width="3300" x="0" y="0"/>
  <line id="" style="fill:none;stroke:black;opacity:1;stroke-width:0.5;" x1="263" x2="3036" y1="292" y2="292"/>
  <text style="stroke:none;fill:black;font-family:-apple-system,&quot;SF Pro Display&quot;,&quot;SF Pro Text&quot;,Helvetica,sans-serif;font-weight:bold;" transform="matrix(1 0 0 1 263 322)">Weight/Scale Variations</text>
  <text style="stroke:none;fill:black;font-family:-apple-system,&quot;SF Pro Display&quot;,&quot;SF Pro Text&quot;,Helvetica,sans-serif;text-anchor:middle;" transform="matrix(1 0 0 1 559.711 322)">Ultralight</text>
  <text style="stroke:none;fill:black;font-family:-apple-system,&quot;SF Pro Display&quot;,&quot;SF Pro Text&quot;,Helvetica,sans-serif;text-anchor:middle;" transform="matrix(1 0 0 1 856.422 322)">Thin</text>
  <text style="stroke:none;fill:black;font-family:-apple-system,&quot;SF Pro Display&quot;,&quot;SF Pro Text&quot;,Helvetica,sans-serif;text-anchor:middle;" transform="matrix(1 0 0 1 1153.13 322)">Light</text>
  <text style="stroke:none;fill:black;font-family:-apple-system,&quot;SF Pro Display&quot;,&quot;SF Pro Text&quot;,Helvetica,sans-serif;text-anchor:middle;" transform="matrix(1 0 0 1 1449.84 322)">Regular</text>
  <text style="stroke:none;fill:black;font-family:-apple-system,&quot;SF Pro Display&quot;,&quot;SF Pro Text&quot;,Helvetica,sans-serif;text-anchor:middle;" transform="matrix(1 0 0 1 1746.56 322)">Medium</text>
  <text style="stroke:none;fill:black;font-family:-apple-system,&quot;SF Pro Display&quot;,&quot;SF Pro Text&quot;,Helvetica,sans-serif;text-anchor:middle;" transform="matrix(1 0 0 1 2043.27 322)">Semibold</text>
  <text style="stroke:none;fill:black;font-family:-apple-system,&quot;SF Pro Display&quot;,&quot;SF Pro Text&quot;,Helvetica,sans-serif;text-anchor:middle;" transform="matrix(1 0 0 1 2339.98 322)">Bold</text>
  <text style="stroke:none;fill:black;font-family:-apple-system,&quot;SF Pro Display&quot;,&quot;SF Pro Text&quot;,Helvetica,sans-serif;text-anchor:middle;" transform="matrix(1 0 0 1 2636.69 322)">Heavy</text>
  <text style="stroke:none;fill:black;font-family:-apple-system,&quot;SF Pro Display&quot;,&quot;SF Pro Text&quot;,Helvetica,sans-serif;text-anchor:middle;" transform="matrix(1 0 0 1 2933.4 322)">Black</text>
  <line id="" style="fill:none;stroke:black;opacity:1;stroke-width:0.5;" x1="263" x2="3036" y1="1903" y2="1903"/>
  <g id="" transform="matrix(1 0 0 1 263 1933)">
   <path d="M 9.24805 0.830078 C 13.5547 0.830078 17.1387 -2.74414 17.1387 -7.05078 C 17.1387 -11.3574 13.5449 -14.9316 9.23828 -14.9316 C 4.94141 -14.9316 1.36719 -11.3574 1.36719 -7.05078 C 1.36719 -2.74414 4.95117 0.830078 9.24805 0.830078 Z M 9.24805 -0.654297 C 5.70312 -0.654297 2.87109 -3.49609 2.87109 -7.05078 C 2.87109 -10.6055 5.69336 -13.4473 9.23828 -13.4473 C 12.793 -13.4473 15.6348 -10.6055 15.6445 -7.05078 C 15.6543 -3.49609 12.8027 -0.654297 9.24805 -0.654297 Z M 9.22852 -3.42773 C 9.69727 -3.42773 9.9707 -3.74023 9.9707 -4.25781 L 9.9707 -6.31836 L 12.1973 -6.31836 C 12.6953 -6.31836 13.0371 -6.57227 13.0371 -7.04102 C 13.0371 -7.51953 12.7148 -7.7832 12.1973 -7.7832 L 9.9707 -7.7832 L 9.9707 -10.0098 C 9.9707 -10.5273 9.69727 -10.8496 9.22852 -10.8496 C 8.75977 -10.8496 8.50586 -10.5078 8.50586 -10.0098 L 8.50586 -7.7832 L 6.29883 -7.7832 C 5.78125 -7.7832 5.44922 -7.51953 5.44922 -7.04102 C 5.44922 -6.57227 5.80078 -6.31836 6.29883 -6.31836 L 8.50586 -6.31836 L 8.50586 -4.25781 C 8.50586 -3.75977 8.75977 -3.42773 9.22852 -3.42773 Z"/>
  </g>
  <g id="" transform="matrix(1 0 0 1 281.506 1933)">
   <path d="M 11.709 2.91016 C 17.1582 2.91016 21.6699 -1.60156 21.6699 -7.05078 C 21.6699 -12.4902 17.1484 -17.0117 11.6992 -17.0117 C 6.25977 -17.0117 1.74805 -12.4902 1.74805 -7.05078 C 1.74805 -1.60156 6.26953 2.91016 11.709 2.91016 Z M 11.709 1.25 C 7.09961 1.25 3.41797 -2.44141 3.41797 -7.05078 C 3.41797 -11.6504 7.08984 -15.3516 11.6992 -15.3516 C 16.3086 -15.3516 20 -11.6504 20.0098 -7.05078 C 20.0195 -2.44141 16.3184 1.25 11.709 1.25 Z M 11.6895 -2.41211 C 12.207 -2.41211 12.5195 -2.77344 12.5195 -3.33984 L 12.5195 -6.23047 L 15.5762 -6.23047 C 16.123 -6.23047 16.5039 -6.51367 16.5039 -7.03125 C 16.5039 -7.55859 16.1426 -7.86133 15.5762 -7.86133 L 12.5195 -7.86133 L 12.5195 -10.9277 C 12.5195 -11.5039 12.207 -11.8555 11.6895 -11.8555 C 11.1719 -11.8555 10.8789 -11.4844 10.8789 -10.9277 L 10.8789 -7.86133 L 7.83203 -7.86133 C 7.26562 -7.86133 6.89453 -7.55859 6.89453 -7.03125 C 6.89453 -6.51367 7.28516 -6.23047 7.83203 -6.23047 L 10.8789 -6.23047 L 10.8789 -3.33984 C 10.8789 -2.79297 11.1719 -2.41211 11.6895 -2.41211 Z"/>
  </g>
  <g id="" transform="matrix(1 0 0 1 304.924 1933)">
   <path d="M 14.9707 5.67383 C 21.9336 5.67383 27.6953 -0.078125 27.6953 -7.04102 C 27.6953 -14.0039 21.9238 -19.7559 14.9609 -19.7559 C 8.00781 -19.7559 2.25586 -14.0039 2.25586 -7.04102 C 2.25586 -0.078125 8.01758 5.67383 14.9707 5.67383 Z M 14.9707 3.85742 C 8.93555 3.85742 4.08203 -1.00586 4.08203 -7.04102 C 4.08203 -13.0762 8.92578 -17.9395 14.9609 -17.9395 C 21.0059 -17.9395 25.8594 -13.0762 25.8691 -7.04102 C 25.8789 -1.00586 21.0156 3.85742 14.9707 3.85742 Z M 14.9512 -1.06445 C 15.5176 -1.06445 15.8691 -1.45508 15.8691 -2.06055 L 15.8691 -6.13281 L 20.1074 -6.13281 C 20.6934 -6.13281 21.1133 -6.46484 21.1133 -7.02148 C 21.1133 -7.59766 20.7227 -7.93945 20.1074 -7.93945 L 15.8691 -7.93945 L 15.8691 -12.1875 C 15.8691 -12.8027 15.5176 -13.1934 14.9512 -13.1934 C 14.3848 -13.1934 14.0625 -12.7832 14.0625 -12.1875 L 14.0625 -7.93945 L 9.83398 -7.93945 C 9.21875 -7.93945 8.80859 -7.59766 8.80859 -7.02148 C 8.80859 -6.46484 9.23828 -6.13281 9.83398 -6.13281 L 14.0625 -6.13281 L 14.0625 -2.06055 C 14.0625 -1.47461 14.3848 -1.06445 14.9512 -1.06445 Z"/>
  </g>
  <text style="stroke:none;fill:black;font-family:-apple-system,&quot;SF Pro Display&quot;,&quot;SF Pro Text&quot;,Helvetica,sans-serif;font-weight:bold;" transform="matrix(1 0 0 1 263 1953)">Design Variations</text>
  <text style="stroke:none;fill:black;font-family:-apple-system,&quot;SF Pro Display&quot;,&quot;SF Pro Text&quot;,Helvetica,sans-serif;" transform="matrix(1 0 0 1 263 1971)">Symbols are supported in up to nine weights and three scales.</text>
  <text style="stroke:none;fill:black;font-family:-apple-system,&quot;SF Pro Display&quot;,&quot;SF Pro Text&quot;,Helvetica,sans-serif;" transform="matrix(1 0 0 1 263 1989)">For optimal layout with text and other symbols, vertically align</text>
  <text style="stroke:none;fill:black;font-family:-apple-system,&quot;SF Pro Display&quot;,&quot;SF Pro Text&quot;,Helvetica,sans-serif;" transform="matrix(1 0 0 1 263 2007)">symbols with the adjacent text.</text>
  <rect height="14" id="" style="fill:#00AEEF;stroke:none;opacity:0.4;" width="3" x="776" y="1919"/>
  <g id="" transform="matrix(1 0 0 1 779 1933)">
   <path d="M 10.5273 0 L 12.373 0 L 7.17773 -14.0918 L 5.43945 -14.0918 L 0.244141 0 L 2.08984 0 L 3.50586 -4.0332 L 9.11133 -4.0332 Z M 6.2793 -11.9531 L 6.33789 -11.9531 L 8.59375 -5.52734 L 4.02344 -5.52734 Z"/>
  </g>
  <rect height="14" id="" style="fill:#00AEEF;stroke:none;opacity:0.4;" width="3" x="791.617" y="1919"/>
  <text style="stroke:none;fill:black;font-family:-apple-system,&quot;SF Pro Display&quot;,&quot;SF Pro Text&quot;,Helvetica,sans-serif;font-weight:bold;" transform="matrix(1 0 0 1 776 1953)">Margins</text>
  <text style="stroke:none;fill:black;font-family:-apple-system,&quot;SF Pro Display&quot;,&quot;SF Pro Text&quot;,Helvetica,sans-serif;" transform="matrix(1 0 0 1 776 1971)">Leading and trailing margins on the left and right side of each symbol</text>
  <text style="stroke:none;fill:black;font-family:-apple-system,&quot;SF Pro Display&quot;,&quot;SF Pro Text&quot;,Helvetica,sans-serif;" transform="matrix(1 0 0 1 776 1989)">can be adjusted by modifying the width of the blue rectangles.</text>
  <text style="stroke:none;fill:black;font-family:-apple-system,&quot;SF Pro Display&quot;,&quot;SF Pro Text&quot;,Helvetica,sans-serif;" transform="matrix(1 0 0 1 776 2007)">Modifications are automatically applied proportionally to all</text>
  <text style="stroke:none;fill:black;font-family:-apple-system,&quot;SF Pro Display&quot;,&quot;SF Pro Text&quot;,Helvetica,sans-serif;" transform="matrix(1 0 0 1 776 2025)">scales and weights.</text>
  <g id="" transform="matrix(1 0 0 1 1289 1933)">
   <path d="M 2.83203 3.11523 L 4.375 4.6582 C 5.22461 5.48828 6.19141 5.41992 7.06055 4.46289 L 17.2754 -6.66016 C 17.7051 -6.36719 18.0957 -6.37695 18.5645 -6.47461 L 19.6094 -6.68945 L 20.3027 -5.99609 L 20.2539 -5.47852 C 20.1855 -4.95117 20.3516 -4.53125 20.8496 -4.0332 L 21.6602 -3.22266 C 22.168 -2.71484 22.8223 -2.68555 23.3008 -3.16406 L 26.5527 -6.41602 C 27.0312 -6.89453 27.0117 -7.54883 26.5039 -8.05664 L 25.6836 -8.87695 C 25.1855 -9.375 24.7754 -9.55078 24.2383 -9.47266 L 23.7109 -9.41406 L 23.0566 -10.0781 L 23.3398 -11.2207 C 23.4863 -11.7871 23.3398 -12.2559 22.7148 -12.8613 L 20.3027 -15.2539 C 16.7578 -18.7793 12.2266 -18.6719 9.11133 -15.5371 C 8.69141 -15.1074 8.64258 -14.5215 8.91602 -14.0918 C 9.15039 -13.7207 9.62891 -13.4961 10.2734 -13.6621 C 11.7871 -14.043 13.3008 -13.9258 14.7852 -12.9199 L 14.1602 -11.3379 C 13.9258 -10.752 13.9453 -10.2734 14.1797 -9.83398 L 3.01758 0.439453 C 2.08008 1.30859 1.97266 2.25586 2.83203 3.11523 Z M 10.6738 -15.1465 C 13.3398 -17.1387 16.6504 -16.8262 19.0527 -14.4141 L 21.6797 -11.8066 C 21.9141 -11.5723 21.9434 -11.3867 21.8848 -11.0938 L 21.5039 -9.53125 L 23.0762 -7.95898 L 24.043 -8.04688 C 24.3262 -8.07617 24.4141 -8.05664 24.6387 -7.83203 L 25.2637 -7.20703 L 22.5098 -4.46289 L 21.8848 -5.07812 C 21.6602 -5.30273 21.6406 -5.40039 21.6699 -5.68359 L 21.7578 -6.64062 L 20.1953 -8.20312 L 18.5742 -7.89062 C 18.291 -7.83203 18.1445 -7.83203 17.9102 -8.07617 L 15.7324 -10.2539 C 15.5078 -10.4883 15.4785 -10.625 15.6055 -10.9473 L 16.5527 -13.2227 C 14.9512 -14.7559 12.8418 -15.6055 10.8008 -14.9512 C 10.7129 -14.9219 10.6445 -14.9414 10.6152 -14.9805 C 10.5859 -15.0293 10.5859 -15.0781 10.6738 -15.1465 Z M 4.10156 2.41211 C 3.61328 1.91406 3.78906 1.61133 4.12109 1.30859 L 15.0781 -8.80859 L 16.3086 -7.57812 L 6.15234 3.34961 C 5.84961 3.68164 5.46875 3.7793 5.06836 3.37891 Z"/>
  </g>
  <text style="stroke:none;fill:black;font-family:-apple-system,&quot;SF Pro Display&quot;,&quot;SF Pro Text&quot;,Helvetica,sans-serif;font-weight:bold;" transform="matrix(1 0 0 1 1289 1953)">Exporting</text>
  <text style="stroke:none;fill:black;font-family:-apple-system,&quot;SF Pro Display&quot;,&quot;SF Pro Text&quot;,Helvetica,sans-serif;" transform="matrix(1 0 0 1 1289 1971)">Symbols should be outlined when exporting to ensure the</text>
  <text style="stroke:none;fill:black;font-family:-apple-system,&quot;SF Pro Display&quot;,&quot;SF Pro Text&quot;,Helvetica,sans-serif;" transform="matrix(1 0 0 1 1289 1989)">design is preserved when submitting to Xcode.</text>
  <text id="template-version" style="stroke:none;fill:black;font-family:-apple-system,&quot;SF Pro Display&quot;,&quot;SF Pro Text&quot;,Helvetica,sans-serif;text-anchor:end;" transform="matrix(1 0 0 1 3036 1933)">Template v.1.0</text>
  <text style="stroke:none;fill:black;font-family:-apple-system,&quot;SF Pro Display&quot;,&quot;SF Pro Text&quot;,Helvetica,sans-serif;text-anchor:end;" transform="matrix(1 0 0 1 3036 1951)">Generated from doc.text</text>
  <text style="stroke:none;fill:black;font-family:-apple-system,&quot;SF Pro Display&quot;,&quot;SF Pro Text&quot;,Helvetica,sans-serif;text-anchor:end;" transform="matrix(1 0 0 1 3036 1969)">Typeset at 100 points</text>
  <text style="stroke:none;fill:black;font-family:-apple-system,&quot;SF Pro Display&quot;,&quot;SF Pro Text&quot;,Helvetica,sans-serif;" transform="matrix(1 0 0 1 263 726)">Small</text>
  <text style="stroke:none;fill:black;font-family:-apple-system,&quot;SF Pro Display&quot;,&quot;SF Pro Text&quot;,Helvetica,sans-serif;" transform="matrix(1 0 0 1 263 1156)">Medium</text>
  <text style="stroke:none;fill:black;font-family:-apple-system,&quot;SF Pro Display&quot;,&quot;SF Pro Text&quot;,Helvetica,sans-serif;" transform="matrix(1 0 0 1 263 1586)">Large</text>
 </g>
 <g id="Guides">
  <g id="H-reference" style="fill:#27AAE1;stroke:none;" transform="matrix(1 0 0 1 339 696)">
   <path d="M 54.9316 0 L 57.666 0 L 30.5664 -70.459 L 28.0762 -70.459 L 0.976562 0 L 3.66211 0 L 12.9395 -24.4629 L 45.7031 -24.4629 Z M 29.1992 -67.0898 L 29.4434 -67.0898 L 44.8242 -26.709 L 13.8184 -26.709 Z"/>
  </g>
  <line id="Baseline-S" style="fill:none;stroke:#27AAE1;opacity:1;stroke-width:0.577;" x1="263" x2="3036" y1="696" y2="696"/>
  <line id="Capline-S" style="fill:none;stroke:#27AAE1;opacity:1;stroke-width:0.577;" x1="263" x2="3036" y1="625.541" y2="625.541"/>
  <g id="H-reference" style="fill:#27AAE1;stroke:none;" transform="matrix(1 0 0 1 339 1126)">
   <path d="M 54.9316 0 L 57.666 0 L 30.5664 -70.459 L 28.0762 -70.459 L 0.976562 0 L 3.66211 0 L 12.9395 -24.4629 L 45.7031 -24.4629 Z M 29.1992 -67.0898 L 29.4434 -67.0898 L 44.8242 -26.709 L 13.8184 -26.709 Z"/>
  </g>
  <line id="Baseline-M" style="fill:none;stroke:#27AAE1;opacity:1;stroke-width:0.577;" x1="263" x2="3036" y1="1126" y2="1126"/>
  <line id="Capline-M" style="fill:none;stroke:#27AAE1;opacity:1;stroke-width:0.577;" x1="263" x2="3036" y1="1055.54" y2="1055.54"/>
  <g id="H-reference" style="fill:#27AAE1;stroke:none;" transform="matrix(1 0 0 1 339 1556)">
   <path d="M 54.9316 0 L 57.666 0 L 30.5664 -70.459 L 28.0762 -70.459 L 0.976562 0 L 3.66211 0 L 12.9395 -24.4629 L 45.7031 -24.4629 Z M 29.1992 -67.0898 L 29.4434 -67.0898 L 44.8242 -26.709 L 13.8184 -26.709 Z"/>
  </g>
  <line id="Baseline-L" style="fill:none;stroke:#27AAE1;opacity:1;stroke-width:0.577;" x1="263" x2="3036" y1="1556" y2="1556"/>
  <line id="Capline-L" style="fill:none;stroke:#27AAE1;opacity:1;stroke-width:0.577;" x1="263" x2="3036" y1="1485.54" y2="1485.54"/>
  <rect height="119.336" id="left-margin" style="fill:#00AEEF;stroke:none;opacity:0.4;" width="12.4512" x="1396.33" y="1030.79"/>
  <rect height="119.336" id="right-margin" style="fill:#00AEEF;stroke:none;opacity:0.4;" width="12.4512" x="1490.91" y="1030.79"/>
 </g>
 <g id="Symbols">
  <g id="Black-L" transform="matrix(1 0 0 1 2859.65 1556)">
   <path d="M 39.8926 35.2539 L 107.617 35.2539 C 122.803 35.2539 131.445 26.5625 131.445 11.377 L 131.445 -45.3613 C 131.445 -56.4453 129.688 -62.207 122.559 -69.3359 L 95.4102 -96.7285 C 88.3789 -103.809 82.4707 -105.615 71.7285 -105.615 L 39.8926 -105.615 C 24.707 -105.615 16.0645 -96.9727 16.0645 -81.7383 L 16.0645 11.377 C 16.0645 26.6113 24.707 35.2539 39.8926 35.2539 Z M 42.7246 15.0391 C 38.1836 15.0391 36.3281 12.8418 36.3281 8.64258 L 36.3281 -79.0039 C 36.3281 -83.252 38.1836 -85.4004 42.7246 -85.4004 L 65.332 -85.4004 L 65.332 -58.1055 C 65.332 -45.2637 71.2891 -39.2578 84.1309 -39.2578 L 111.23 -39.2578 L 111.23 8.64258 C 111.23 12.8418 109.326 15.0391 104.785 15.0391 Z M 85.4492 -55.2246 C 82.666 -55.2246 81.25 -56.6406 81.25 -59.4238 L 81.25 -84.4238 L 110.254 -55.2246 Z M 92.6758 -26.123 L 54.1992 -26.123 C 51.5625 -26.123 49.6582 -24.1699 49.6582 -21.6797 C 49.6582 -19.0918 51.5625 -17.0898 54.1992 -17.0898 L 92.6758 -17.0898 C 95.2637 -17.0898 97.168 -19.0918 97.168 -21.6797 C 97.168 -24.1699 95.2637 -26.123 92.6758 -26.123 Z M 92.6758 -7.86133 L 54.1992 -7.86133 C 51.5625 -7.86133 49.6582 -5.85938 49.6582 -3.27148 C 49.6582 -0.78125 51.5625 1.17188 54.1992 1.17188 L 92.6758 1.17188 C 95.2637 1.17188 97.168 -0.78125 97.168 -3.27148 C 97.168 -5.85938 95.2637 -7.86133 92.6758 -7.86133 Z"/>
  </g>
  <g id="Heavy-L" transform="matrix(1 0 0 1 2564.18 1556)">
   <path d="M 38.7207 34.5215 L 106.348 34.5215 C 120.898 34.5215 128.955 26.3672 128.955 11.7676 L 128.955 -45.3125 C 128.955 -55.5176 127.393 -60.6934 120.898 -67.2363 L 91.6016 -96.8262 C 85.2051 -103.271 79.8828 -104.883 70.1172 -104.883 L 38.7207 -104.883 C 24.1699 -104.883 16.0645 -96.7285 16.0645 -82.1289 L 16.0645 11.7676 C 16.0645 26.416 24.1211 34.5215 38.7207 34.5215 Z M 40.9668 16.9922 C 35.8887 16.9922 33.5938 14.502 33.5938 9.66797 L 33.5938 -80.0293 C 33.5938 -84.8145 35.8887 -87.3535 41.0156 -87.3535 L 65.0879 -87.3535 L 65.0879 -57.7148 C 65.0879 -46.1426 70.5078 -40.7227 82.0801 -40.7227 L 111.475 -40.7227 L 111.475 9.66797 C 111.475 14.502 109.18 16.9922 104.053 16.9922 Z M 83.3008 -54.7852 C 80.5176 -54.7852 79.1504 -56.1523 79.1504 -58.9355 L 79.1504 -86.2305 L 110.303 -54.7852 Z M 92.627 -26.1719 L 51.709 -26.1719 C 49.2188 -26.1719 47.3633 -24.3164 47.3633 -21.9727 C 47.3633 -19.5801 49.2188 -17.6758 51.709 -17.6758 L 92.627 -17.6758 C 95.0195 -17.6758 96.875 -19.5801 96.875 -21.9727 C 96.875 -24.3164 95.0195 -26.1719 92.627 -26.1719 Z M 92.627 -6.98242 L 51.709 -6.98242 C 49.2188 -6.98242 47.3633 -5.12695 47.3633 -2.68555 C 47.3633 -0.341797 49.2188 1.46484 51.709 1.46484 L 92.627 1.46484 C 95.0195 1.46484 96.875 -0.341797 96.875 -2.68555 C 96.875 -5.12695 95.0195 -6.98242 92.627 -6.98242 Z"/>
  </g>
  <g id="Bold-L" transform="matrix(1 0 0 1 2268.86 1556)">
   <path d="M 37.4023 33.6914 L 104.883 33.6914 C 118.701 33.6914 126.172 26.123 126.172 12.2559 L 126.172 -45.3125 C 126.172 -54.4922 124.854 -58.9844 119.043 -64.8438 L 87.3535 -96.875 C 81.6895 -102.637 76.9531 -104.053 68.3594 -104.053 L 37.4023 -104.053 C 23.584 -104.053 16.0645 -96.4844 16.0645 -82.5684 L 16.0645 12.2559 C 16.0645 26.1719 23.5352 33.6914 37.4023 33.6914 Z M 39.0137 19.2383 C 33.252 19.2383 30.5176 16.3086 30.5176 10.791 L 30.5176 -81.1523 C 30.5176 -86.5723 33.252 -89.5996 39.0625 -89.5996 L 64.7949 -89.5996 L 64.7949 -57.2266 C 64.7949 -47.0703 69.6777 -42.2852 79.7363 -42.2852 L 111.719 -42.2852 L 111.719 10.791 C 111.719 16.3086 108.984 19.2383 103.223 19.2383 Z M 80.8594 -54.3457 C 78.0762 -54.3457 76.8066 -55.6152 76.8066 -58.3984 L 76.8066 -88.2324 L 110.4 -54.3457 Z M 92.5293 -26.2207 L 48.877 -26.2207 C 46.5332 -26.2207 44.873 -24.5117 44.873 -22.3145 C 44.873 -20.0684 46.5332 -18.3105 48.877 -18.3105 L 92.5293 -18.3105 C 94.7754 -18.3105 96.4844 -20.0684 96.4844 -22.3145 C 96.4844 -24.5117 94.7754 -26.2207 92.5293 -26.2207 Z M 92.5293 -6.05469 L 48.877 -6.05469 C 46.5332 -6.05469 44.873 -4.29688 44.873 -2.05078 C 44.873 0.146484 46.5332 1.80664 48.877 1.80664 L 92.5293 1.80664 C 94.7754 1.80664 96.4844 0.146484 96.4844 -2.05078 C 96.4844 -4.29688 94.7754 -6.05469 92.5293 -6.05469 Z"/>
  </g>
  <g id="Semibold-L" transform="matrix(1 0 0 1 1973.1 1556)">
   <path d="M 36.4746 33.1055 L 103.857 33.1055 C 117.188 33.1055 124.268 25.9766 124.268 12.5488 L 124.268 -45.3125 C 124.268 -53.8086 123.096 -57.8125 117.725 -63.2324 L 84.4238 -96.9238 C 79.248 -102.197 74.9512 -103.467 67.1387 -103.467 L 36.4746 -103.467 C 23.1445 -103.467 16.0645 -96.3379 16.0645 -82.9102 L 16.0645 12.5488 C 16.0645 26.0254 23.0957 33.1055 36.4746 33.1055 Z M 37.6465 20.8008 C 31.4453 20.8008 28.418 17.5781 28.418 11.5723 L 28.418 -81.9336 C 28.418 -87.793 31.4453 -91.1133 37.6953 -91.1133 L 64.5996 -91.1133 L 64.5996 -56.9336 C 64.5996 -47.7539 69.0918 -43.4082 78.125 -43.4082 L 111.914 -43.4082 L 111.914 11.5723 C 111.914 17.5781 108.838 20.8008 102.637 20.8008 Z M 79.1992 -54.0039 C 76.416 -54.0039 75.2441 -55.2246 75.2441 -58.0078 L 75.2441 -89.6484 L 110.449 -54.0039 Z M 92.4805 -26.2695 L 46.9238 -26.2695 C 44.7266 -26.2695 43.1152 -24.6582 43.1152 -22.5586 C 43.1152 -20.459 44.7266 -18.7988 46.9238 -18.7988 L 92.4805 -18.7988 C 94.6289 -18.7988 96.2402 -20.459 96.2402 -22.5586 C 96.2402 -24.6582 94.6289 -26.2695 92.4805 -26.2695 Z M 92.4805 -5.41992 L 46.9238 -5.41992 C 44.7266 -5.41992 43.1152 -3.75977 43.1152 -1.61133 C 43.1152 0.439453 44.7266 2.05078 46.9238 2.05078 L 92.4805 2.05078 C 94.6289 2.05078 96.2402 0.439453 96.2402 -1.61133 C 96.2402 -3.75977 94.6289 -5.41992 92.4805 -5.41992 Z"/>
  </g>
  <g id="Medium-L" transform="matrix(1 0 0 1 1677.12 1556)">
   <path d="M 35.791 32.666 L 103.076 32.666 C 116.064 32.666 122.803 25.8789 122.803 12.793 L 122.803 -45.3125 C 122.803 -53.2715 121.729 -56.9336 116.748 -61.9629 L 82.2266 -96.9727 C 77.4414 -101.855 73.4375 -103.027 66.2109 -103.027 L 35.791 -103.027 C 22.8516 -103.027 16.0645 -96.1914 16.0645 -83.1055 L 16.0645 12.793 C 16.0645 25.9277 22.8027 32.666 35.791 32.666 Z M 36.6211 21.9727 C 30.127 21.9727 26.8066 18.5059 26.8066 12.1582 L 26.8066 -82.5195 C 26.8066 -88.7207 30.127 -92.2852 36.6699 -92.2852 L 64.4531 -92.2852 L 64.4531 -56.6895 C 64.4531 -48.2422 68.6035 -44.2383 76.9043 -44.2383 L 112.061 -44.2383 L 112.061 12.1582 C 112.061 18.5059 108.74 21.9727 102.197 21.9727 Z M 77.9297 -53.7598 C 75.1465 -53.7598 74.0234 -54.9316 74.0234 -57.7148 L 74.0234 -90.6738 L 110.449 -53.7598 Z M 92.4316 -26.2695 L 45.459 -26.2695 C 43.3594 -26.2695 41.7969 -24.7559 41.7969 -22.7539 C 41.7969 -20.7031 43.3594 -19.1406 45.459 -19.1406 L 92.4316 -19.1406 C 94.4824 -19.1406 96.0449 -20.7031 96.0449 -22.7539 C 96.0449 -24.7559 94.4824 -26.2695 92.4316 -26.2695 Z M 92.4316 -4.93164 L 45.459 -4.93164 C 43.3594 -4.93164 41.7969 -3.32031 41.7969 -1.26953 C 41.7969 0.732422 43.3594 2.24609 45.459 2.24609 L 92.4316 2.24609 C 94.4824 2.24609 96.0449 0.732422 96.0449 -1.26953 C 96.0449 -3.32031 94.4824 -4.93164 92.4316 -4.93164 Z"/>
  </g>
  <g id="Regular-L" transform="matrix(1 0 0 1 1381.36 1556)">
   <path d="M 34.8633 32.1289 L 102.1 32.1289 C 114.6 32.1289 120.898 25.6836 120.898 13.1348 L 120.898 -45.3125 C 120.898 -52.5879 120.02 -55.7617 115.479 -60.3516 L 79.2969 -97.0215 C 75 -101.465 71.4844 -102.441 64.9902 -102.441 L 34.8633 -102.441 C 22.4609 -102.441 16.0645 -96.0449 16.0645 -83.4473 L 16.0645 13.1348 C 16.0645 25.7324 22.3633 32.1289 34.8633 32.1289 Z M 35.3027 23.4863 C 28.3203 23.4863 24.707 19.7754 24.707 12.9395 L 24.707 -83.252 C 24.707 -89.9414 28.3203 -93.7988 35.3516 -93.7988 L 64.2578 -93.7988 L 64.2578 -56.3965 C 64.2578 -48.9258 68.0176 -45.3125 75.3418 -45.3125 L 112.256 -45.3125 L 112.256 12.9395 C 112.256 19.7754 108.643 23.4863 101.611 23.4863 Z M 76.2695 -53.4668 C 73.5352 -53.4668 72.4121 -54.541 72.4121 -57.3242 L 72.4121 -92.0898 L 110.547 -53.4668 Z M 92.3828 -26.3184 L 43.5547 -26.3184 C 41.5527 -26.3184 40.0879 -24.8535 40.0879 -22.998 C 40.0879 -21.0938 41.5527 -19.5801 43.5547 -19.5801 L 92.3828 -19.5801 C 94.3359 -19.5801 95.8008 -21.0938 95.8008 -22.998 C 95.8008 -24.8535 94.3359 -26.3184 92.3828 -26.3184 Z M 92.3828 -4.29688 L 43.5547 -4.29688 C 41.5527 -4.29688 40.0879 -2.7832 40.0879 -0.830078 C 40.0879 1.02539 41.5527 2.49023 43.5547 2.49023 L 92.3828 2.49023 C 94.3359 2.49023 95.8008 1.02539 95.8008 -0.830078 C 95.8008 -2.7832 94.3359 -4.29688 92.3828 -4.29688 Z"/>
  </g>
  <g id="Light-L" transform="matrix(1 0 0 1 1085.43 1556)">
   <path d="M 33.9355 31.7871 L 101.514 31.7871 C 113.281 31.7871 119.336 25.6836 119.336 13.8184 L 119.336 -46.2402 C 119.336 -52.3926 118.506 -55.127 114.697 -58.9844 L 76.5625 -97.4121 C 72.9004 -101.123 69.9219 -102.051 64.3066 -102.051 L 33.9355 -102.051 C 22.2168 -102.051 16.0645 -95.9473 16.0645 -84.082 L 16.0645 13.8184 C 16.0645 25.6836 22.1191 31.7871 33.9355 31.7871 Z M 34.2285 25.1953 C 26.6113 25.1953 22.7051 21.1914 22.7051 13.6719 L 22.7051 -83.9355 C 22.7051 -91.2598 26.6113 -95.459 34.2773 -95.459 L 64.4531 -95.459 L 64.4531 -56.8848 C 64.4531 -50.0488 67.9199 -46.875 74.4629 -46.875 L 112.744 -46.875 L 112.744 13.6719 C 112.744 21.1914 108.789 25.1953 101.172 25.1953 Z M 75.0977 -53.1738 C 72.0215 -53.1738 70.752 -54.3945 70.752 -57.5195 L 70.752 -94.043 L 111.328 -53.1738 Z M 92.627 -25.6836 L 42.334 -25.6836 C 40.6738 -25.6836 39.502 -24.5117 39.502 -22.998 C 39.502 -21.4844 40.6738 -20.2637 42.334 -20.2637 L 92.627 -20.2637 C 94.1895 -20.2637 95.4102 -21.4844 95.4102 -22.998 C 95.4102 -24.5117 94.1895 -25.6836 92.627 -25.6836 Z M 92.627 -3.51562 L 42.334 -3.51562 C 40.6738 -3.51562 39.502 -2.29492 39.502 -0.78125 C 39.502 0.732422 40.6738 1.9043 42.334 1.9043 L 92.627 1.9043 C 94.1895 1.9043 95.4102 0.732422 95.4102 -0.78125 C 95.4102 -2.29492 94.1895 -3.51562 92.627 -3.51562 Z"/>
  </g>
  <g id="Thin-L" transform="matrix(1 0 0 1 789.747 1556)">
   <path d="M 32.666 31.3477 L 100.732 31.3477 C 111.572 31.3477 117.285 25.6348 117.285 14.7461 L 117.285 -47.4609 C 117.285 -52.1484 116.455 -54.2969 113.672 -57.1289 L 72.9004 -97.9492 C 70.1172 -100.732 67.9199 -101.562 63.3789 -101.562 L 32.666 -101.562 C 21.9238 -101.562 16.0645 -95.8496 16.0645 -84.9609 L 16.0645 14.7461 C 16.0645 25.6348 21.7773 31.3477 32.666 31.3477 Z M 32.8613 27.4414 C 24.3652 27.4414 19.9707 23.0469 19.9707 14.5996 L 19.9707 -84.8145 C 19.9707 -92.9688 24.3652 -97.6562 32.8613 -97.6562 L 64.7461 -97.6562 L 64.7461 -57.5195 C 64.7461 -51.5137 67.7246 -48.9746 73.291 -48.9746 L 113.379 -48.9746 L 113.379 14.5996 C 113.379 23.0469 108.984 27.4414 100.537 27.4414 Z M 73.584 -52.832 C 69.9707 -52.832 68.6035 -54.1992 68.6035 -57.8125 L 68.6035 -96.6797 L 112.354 -52.832 Z M 92.9199 -24.8535 L 40.7227 -24.8535 C 39.5996 -24.8535 38.7695 -24.0723 38.7695 -23.0469 C 38.7695 -22.0215 39.5996 -21.1914 40.7227 -21.1914 L 92.9199 -21.1914 C 94.043 -21.1914 94.873 -22.0215 94.873 -23.0469 C 94.873 -24.0723 94.043 -24.8535 92.9199 -24.8535 Z M 92.9199 -2.53906 L 40.7227 -2.53906 C 39.5996 -2.53906 38.7695 -1.70898 38.7695 -0.732422 C 38.7695 0.292969 39.5996 1.12305 40.7227 1.12305 L 92.9199 1.12305 C 94.043 1.12305 94.873 0.292969 94.873 -0.732422 C 94.873 -1.70898 94.043 -2.53906 92.9199 -2.53906 Z"/>
  </g>
  <g id="Ultralight-L" transform="matrix(1 0 0 1 493.549 1556)">
   <path d="M 31.9824 31.1523 L 100.293 31.1523 C 110.693 31.1523 116.26 25.5859 116.26 15.2344 L 116.26 -48.1445 C 116.26 -52.002 115.43 -53.9062 113.135 -56.2012 L 71.0449 -98.1934 C 68.7012 -100.537 66.8945 -101.318 62.8906 -101.318 L 31.9824 -101.318 C 21.7773 -101.318 16.0645 -95.8008 16.0645 -85.4492 L 16.0645 15.2344 C 16.0645 25.5859 21.6309 31.1523 31.9824 31.1523 Z M 32.1289 28.5645 C 23.2422 28.5645 18.6035 23.9746 18.6035 15.0391 L 18.6035 -85.2539 C 18.6035 -93.8477 23.2422 -98.7793 32.1289 -98.7793 L 64.8438 -98.7793 L 64.8438 -57.8613 C 64.8438 -52.2949 67.6758 -50 72.7051 -50 L 113.672 -50 L 113.672 15.0391 C 113.672 23.9746 109.082 28.5645 100.195 28.5645 Z M 72.8027 -52.6367 C 68.9453 -52.6367 67.4805 -54.1016 67.4805 -57.9102 L 67.4805 -97.998 L 112.891 -52.6367 Z M 93.1152 -24.4629 L 39.8926 -24.4629 C 39.0137 -24.4629 38.3789 -23.8281 38.3789 -23.0469 C 38.3789 -22.3145 39.0137 -21.6797 39.8926 -21.6797 L 93.1152 -21.6797 C 93.9453 -21.6797 94.5801 -22.3145 94.5801 -23.0469 C 94.5801 -23.8281 93.9453 -24.4629 93.1152 -24.4629 Z M 93.1152 -2.05078 L 39.8926 -2.05078 C 39.0137 -2.05078 38.3789 -1.41602 38.3789 -0.683594 C 38.3789 0.0976562 39.0137 0.732422 39.8926 0.732422 L 93.1152 0.732422 C 93.9453 0.732422 94.5801 0.0976562 94.5801 -0.683594 C 94.5801 -1.41602 93.9453 -2.05078 93.1152 -2.05078 Z"/>
  </g>
  <g id="Black-M" transform="matrix(1 0 0 1 2874.98 1126)">
   <path d="M 31.9824 20.2148 L 84.8633 20.2148 C 97.1191 20.2148 104.395 12.9395 104.395 0.683594 L 104.395 -43.6035 C 104.395 -52.7832 102.734 -57.8613 96.7773 -63.7695 L 77.5879 -83.0078 C 71.582 -88.9648 66.6016 -90.625 57.3242 -90.625 L 31.9824 -90.625 C 19.7266 -90.625 12.4512 -83.3496 12.4512 -71.0938 L 12.4512 0.683594 C 12.4512 12.9395 19.7266 20.2148 31.9824 20.2148 Z M 34.9121 1.9043 C 31.8359 1.9043 30.7617 0.585938 30.7617 -2.24609 L 30.7617 -68.1641 C 30.7617 -70.9961 31.8359 -72.3145 34.9121 -72.3145 L 51.0742 -72.3145 L 51.0742 -53.7598 C 51.0742 -42.4316 56.2012 -37.3047 67.5293 -37.3047 L 86.1328 -37.3047 L 86.1328 -2.24609 C 86.1328 0.585938 85.0098 1.9043 81.9336 1.9043 Z M 68.5547 -51.123 C 66.1621 -51.123 64.8926 -52.3926 64.8926 -54.7852 L 64.8926 -71.9727 L 85.791 -51.123 Z M 72.0703 -27.7344 L 44.7754 -27.7344 C 42.7246 -27.7344 41.2109 -26.2695 41.2109 -24.3164 C 41.2109 -22.3145 42.7246 -20.752 44.7754 -20.752 L 72.0703 -20.752 C 74.0234 -20.752 75.5371 -22.3145 75.5371 -24.3164 C 75.5371 -26.2695 74.0234 -27.7344 72.0703 -27.7344 Z M 72.0703 -14.7461 L 44.7754 -14.7461 C 42.7246 -14.7461 41.2109 -13.1836 41.2109 -11.1816 C 41.2109 -9.27734 42.7246 -7.76367 44.7754 -7.76367 L 72.0703 -7.76367 C 74.0234 -7.76367 75.5371 -9.27734 75.5371 -11.1816 C 75.5371 -13.1836 74.0234 -14.7461 72.0703 -14.7461 Z"/>
  </g>
  <g id="Heavy-M" transform="matrix(1 0 0 1 2579.41 1126)">
   <path d="M 30.957 19.4824 L 83.5938 19.4824 C 95.3125 19.4824 102.1 12.7441 102.1 0.976562 L 102.1 -43.3105 C 102.1 -51.8555 100.635 -56.3477 95.166 -61.8164 L 74.1211 -83.0078 C 68.7012 -88.4277 64.1602 -89.8926 55.8105 -89.8926 L 30.957 -89.8926 C 19.1895 -89.8926 12.4512 -83.1055 12.4512 -71.3379 L 12.4512 0.976562 C 12.4512 12.7441 19.1895 19.4824 30.957 19.4824 Z M 33.252 3.66211 C 29.7363 3.66211 28.2715 2.00195 28.2715 -1.31836 L 28.2715 -69.0918 C 28.2715 -72.3633 29.7363 -74.0723 33.3008 -74.0723 L 50.7324 -74.0723 L 50.7324 -53.2227 C 50.7324 -43.1152 55.4199 -38.4277 65.4785 -38.4277 L 86.2793 -38.4277 L 86.2793 -1.31836 C 86.2793 2.00195 84.8145 3.66211 81.25 3.66211 Z M 66.4551 -50.7324 C 64.209 -50.7324 63.0371 -51.9043 63.0371 -54.1504 L 63.0371 -73.4375 L 85.6445 -50.7324 Z M 71.9238 -27.9785 L 42.334 -27.9785 C 40.332 -27.9785 38.916 -26.5137 38.916 -24.6582 C 38.916 -22.7051 40.332 -21.2402 42.334 -21.2402 L 71.9238 -21.2402 C 73.8281 -21.2402 75.293 -22.7051 75.293 -24.6582 C 75.293 -26.5137 73.8281 -27.9785 71.9238 -27.9785 Z M 71.9238 -14.0137 L 42.334 -14.0137 C 40.332 -14.0137 38.916 -12.5 38.916 -10.5957 C 38.916 -8.74023 40.332 -7.27539 42.334 -7.27539 L 71.9238 -7.27539 C 73.8281 -7.27539 75.293 -8.74023 75.293 -10.5957 C 75.293 -12.5 73.8281 -14.0137 71.9238 -14.0137 Z"/>
  </g>
  <g id="Bold-M" transform="matrix(1 0 0 1 2284 1126)">
   <path d="M 29.7852 18.7012 L 82.1777 18.7012 C 93.3105 18.7012 99.5117 12.5 99.5117 1.26953 L 99.5117 -43.0664 C 99.5117 -50.7812 98.291 -54.6875 93.3594 -59.668 L 70.3125 -82.959 C 65.4785 -87.8418 61.4258 -89.0625 54.0527 -89.0625 L 29.7852 -89.0625 C 18.6035 -89.0625 12.4512 -82.8613 12.4512 -71.6309 L 12.4512 1.26953 C 12.4512 12.5 18.6035 18.7012 29.7852 18.7012 Z M 31.4453 5.61523 C 27.3926 5.61523 25.5371 3.56445 25.5371 -0.244141 L 25.5371 -70.1172 C 25.5371 -73.9258 27.3926 -75.9766 31.4453 -75.9766 L 50.3906 -75.9766 L 50.3906 -52.5391 C 50.3906 -43.7988 54.4922 -39.6973 63.2324 -39.6973 L 86.4258 -39.6973 L 86.4258 -0.244141 C 86.4258 3.56445 84.5703 5.61523 80.4688 5.61523 Z M 64.1602 -50.3418 C 62.0117 -50.3418 60.9863 -51.3184 60.9863 -53.5156 L 60.9863 -75.0488 L 85.498 -50.3418 Z M 71.7773 -28.2227 L 39.5996 -28.2227 C 37.6953 -28.2227 36.2793 -26.8066 36.2793 -25.0488 C 36.2793 -23.1934 37.6953 -21.7285 39.5996 -21.7285 L 71.7773 -21.7285 C 73.6328 -21.7285 75 -23.1934 75 -25.0488 C 75 -26.8066 73.6328 -28.2227 71.7773 -28.2227 Z M 71.7773 -13.1836 L 39.5996 -13.1836 C 37.6953 -13.1836 36.2793 -11.7676 36.2793 -9.91211 C 36.2793 -8.10547 37.6953 -6.68945 39.5996 -6.68945 L 71.7773 -6.68945 C 73.6328 -6.68945 75 -8.10547 75 -9.91211 C 75 -11.7676 73.6328 -13.1836 71.7773 -13.1836 Z"/>
  </g>
  <g id="Semibold-M" transform="matrix(1 0 0 1 1988.19 1126)">
   <path d="M 29.0039 18.1152 L 81.1523 18.1152 C 91.9434 18.1152 97.7051 12.3047 97.7051 1.46484 L 97.7051 -42.8223 C 97.7051 -50.0488 96.6797 -53.5156 92.1387 -58.1543 L 67.6758 -82.959 C 63.2324 -87.4512 59.5215 -88.5254 52.8809 -88.5254 L 29.0039 -88.5254 C 18.2129 -88.5254 12.4512 -82.666 12.4512 -71.8262 L 12.4512 1.46484 C 12.4512 12.3535 18.2129 18.1152 29.0039 18.1152 Z M 30.1758 6.93359 C 25.7324 6.93359 23.6328 4.6875 23.6328 0.439453 L 23.6328 -70.8496 C 23.6328 -75 25.7324 -77.3438 30.1758 -77.3438 L 50.1465 -77.3438 L 50.1465 -52.0996 C 50.1465 -44.3359 53.9062 -40.625 61.6211 -40.625 L 86.5234 -40.625 L 86.5234 0.439453 C 86.5234 4.6875 84.375 6.93359 79.9805 6.93359 Z M 62.5488 -50.0488 C 60.498 -50.0488 59.5703 -50.9766 59.5703 -53.0273 L 59.5703 -76.1719 L 85.4004 -50.0488 Z M 71.6309 -28.3691 L 37.7441 -28.3691 C 35.8398 -28.3691 34.5215 -27.0508 34.5215 -25.293 C 34.5215 -23.4863 35.8398 -22.0703 37.7441 -22.0703 L 71.6309 -22.0703 C 73.4375 -22.0703 74.8047 -23.4863 74.8047 -25.293 C 74.8047 -27.0508 73.4375 -28.3691 71.6309 -28.3691 Z M 71.6309 -12.6465 L 37.7441 -12.6465 C 35.8398 -12.6465 34.5215 -11.2305 34.5215 -9.42383 C 34.5215 -7.66602 35.8398 -6.34766 37.7441 -6.34766 L 71.6309 -6.34766 C 73.4375 -6.34766 74.8047 -7.66602 74.8047 -9.42383 C 74.8047 -11.2305 73.4375 -12.6465 71.6309 -12.6465 Z"/>
  </g>
  <g id="Medium-M" transform="matrix(1 0 0 1 1692.16 1126)">
   <path d="M 28.3691 17.7246 L 80.4199 17.7246 C 90.918 17.7246 96.3379 12.1582 96.3379 1.61133 L 96.3379 -42.6758 C 96.3379 -49.5117 95.459 -52.6367 91.2109 -56.9824 L 65.6738 -82.9102 C 61.5234 -87.1094 58.1055 -88.0859 51.9531 -88.0859 L 28.3691 -88.0859 C 17.9199 -88.0859 12.4512 -82.5684 12.4512 -72.0215 L 12.4512 1.61133 C 12.4512 12.207 17.9199 17.7246 28.3691 17.7246 Z M 29.1992 7.95898 C 24.5117 7.95898 22.168 5.51758 22.168 0.976562 L 22.168 -71.3867 C 22.168 -75.8301 24.5117 -78.3691 29.248 -78.3691 L 49.9512 -78.3691 L 49.9512 -51.7578 C 49.9512 -44.6777 53.418 -41.2598 60.4492 -41.2598 L 86.6211 -41.2598 L 86.6211 0.976562 C 86.6211 5.51758 84.2773 7.95898 79.541 7.95898 Z M 61.377 -49.8047 C 59.3262 -49.8047 58.4473 -50.6836 58.4473 -52.6855 L 58.4473 -77.0508 L 85.3027 -49.8047 Z M 71.582 -28.5156 L 36.2793 -28.5156 C 34.4727 -28.5156 33.1543 -27.1973 33.1543 -25.4883 C 33.1543 -23.7305 34.4727 -22.3633 36.2793 -22.3633 L 71.582 -22.3633 C 73.3398 -22.3633 74.6582 -23.7305 74.6582 -25.4883 C 74.6582 -27.1973 73.3398 -28.5156 71.582 -28.5156 Z M 71.582 -12.207 L 36.2793 -12.207 C 34.4727 -12.207 33.1543 -10.8398 33.1543 -9.08203 C 33.1543 -7.37305 34.4727 -6.05469 36.2793 -6.05469 L 71.582 -6.05469 C 73.3398 -6.05469 74.6582 -7.37305 74.6582 -9.08203 C 74.6582 -10.8398 73.3398 -12.207 71.582 -12.207 Z"/>
  </g>
  <g id="Regular-M" transform="matrix(1 0 0 1 1396.33 1126)">
   <path d="M 27.5879 17.1387 L 79.4434 17.1387 C 89.5508 17.1387 94.5801 12.0117 94.5801 1.85547 L 94.5801 -42.4805 C 94.5801 -48.7793 93.8477 -51.5137 89.9414 -55.5176 L 63.0371 -82.9102 C 59.3262 -86.7188 56.25 -87.5488 50.7812 -87.5488 L 27.5879 -87.5488 C 17.5293 -87.5488 12.4512 -82.373 12.4512 -72.2168 L 12.4512 1.85547 C 12.4512 12.0605 17.4805 17.1387 27.5879 17.1387 Z M 27.9297 9.27734 C 22.9004 9.27734 20.3125 6.5918 20.3125 1.70898 L 20.3125 -72.0703 C 20.3125 -76.9043 22.9004 -79.6875 27.9785 -79.6875 L 49.707 -79.6875 L 49.707 -51.3184 C 49.707 -45.166 52.7832 -42.1387 58.8867 -42.1387 L 86.7188 -42.1387 L 86.7188 1.70898 C 86.7188 6.5918 84.1309 9.27734 79.0527 9.27734 Z M 59.7656 -49.5117 C 57.8125 -49.5117 57.0801 -50.293 57.0801 -52.2461 L 57.0801 -78.1738 L 85.2051 -49.5117 Z M 71.4844 -28.7109 L 34.4238 -28.7109 C 32.666 -28.7109 31.3477 -27.3926 31.3477 -25.7324 C 31.3477 -24.0234 32.666 -22.7051 34.4238 -22.7051 L 71.4844 -22.7051 C 73.1934 -22.7051 74.4629 -24.0234 74.4629 -25.7324 C 74.4629 -27.3926 73.1934 -28.7109 71.4844 -28.7109 Z M 71.4844 -11.6699 L 34.4238 -11.6699 C 32.666 -11.6699 31.3477 -10.3027 31.3477 -8.59375 C 31.3477 -6.93359 32.666 -5.66406 34.4238 -5.66406 L 71.4844 -5.66406 C 73.1934 -5.66406 74.4629 -6.93359 74.4629 -8.59375 C 74.4629 -10.3027 73.1934 -11.6699 71.4844 -11.6699 Z"/>
  </g>
  <g id="Light-M" transform="matrix(1 0 0 1 1100.33 1126)">
   <path d="M 26.709 16.8457 L 78.9062 16.8457 C 88.3789 16.8457 93.1641 11.9629 93.1641 2.49023 L 93.1641 -43.3594 C 93.1641 -48.6328 92.4805 -50.9277 89.2578 -54.248 L 60.5469 -83.252 C 57.4219 -86.4258 54.8828 -87.207 50.1465 -87.207 L 26.709 -87.207 C 17.334 -87.207 12.4512 -82.3242 12.4512 -72.8027 L 12.4512 2.49023 C 12.4512 12.0117 17.2852 16.8457 26.709 16.8457 Z M 27.002 10.8398 C 21.3867 10.8398 18.5059 7.86133 18.5059 2.34375 L 18.5059 -72.6562 C 18.5059 -78.0762 21.3867 -81.1523 27.0508 -81.1523 L 49.8535 -81.1523 L 49.8535 -51.7578 C 49.8535 -46.1914 52.6855 -43.5547 58.1055 -43.5547 L 87.1582 -43.5547 L 87.1582 2.34375 C 87.1582 7.86133 84.2285 10.8398 78.6133 10.8398 Z M 58.7402 -49.2676 C 56.4941 -49.2676 55.5664 -50.1465 55.5664 -52.4414 L 55.5664 -79.9316 L 85.9375 -49.2676 Z M 71.6797 -28.125 L 33.3496 -28.125 C 31.9336 -28.125 30.8594 -27.0996 30.8594 -25.7324 C 30.8594 -24.4141 31.9336 -23.3398 33.3496 -23.3398 L 71.6797 -23.3398 C 73.0469 -23.3398 74.1211 -24.4141 74.1211 -25.7324 C 74.1211 -27.0996 73.0469 -28.125 71.6797 -28.125 Z M 71.6797 -10.9863 L 33.3496 -10.9863 C 31.9336 -10.9863 30.8594 -9.91211 30.8594 -8.54492 C 30.8594 -7.22656 31.9336 -6.20117 33.3496 -6.20117 L 71.6797 -6.20117 C 73.0469 -6.20117 74.1211 -7.22656 74.1211 -8.54492 C 74.1211 -9.91211 73.0469 -10.9863 71.6797 -10.9863 Z"/>
  </g>
  <g id="Thin-M" transform="matrix(1 0 0 1 804.518 1126)">
   <path d="M 25.5859 16.4551 L 78.2227 16.4551 C 86.8164 16.4551 91.3574 11.9629 91.3574 3.32031 L 91.3574 -44.4336 C 91.3574 -48.3887 90.7227 -50.1953 88.3301 -52.6367 L 57.3242 -83.7402 C 54.9316 -86.084 53.0762 -86.7676 49.3164 -86.7676 L 25.5859 -86.7676 C 17.041 -86.7676 12.4512 -82.2266 12.4512 -73.584 L 12.4512 3.32031 C 12.4512 11.9629 16.9434 16.4551 25.5859 16.4551 Z M 25.7324 12.8418 C 19.3848 12.8418 16.0645 9.52148 16.0645 3.17383 L 16.0645 -73.4863 C 16.0645 -79.5898 19.3848 -83.1543 25.7812 -83.1543 L 50.0977 -83.1543 L 50.0977 -52.3926 C 50.0977 -47.5098 52.5391 -45.4102 57.0801 -45.4102 L 87.7441 -45.4102 L 87.7441 3.17383 C 87.7441 9.52148 84.4238 12.8418 78.0273 12.8418 Z M 57.373 -48.9258 C 54.6875 -48.9258 53.6133 -50 53.6133 -52.6367 L 53.6133 -82.2754 L 86.8652 -48.9258 Z M 71.9727 -27.3926 L 31.8848 -27.3926 C 30.9082 -27.3926 30.2246 -26.6602 30.2246 -25.7812 C 30.2246 -24.8535 30.9082 -24.1699 31.8848 -24.1699 L 71.9727 -24.1699 C 72.9004 -24.1699 73.6328 -24.8535 73.6328 -25.7812 C 73.6328 -26.6602 72.9004 -27.3926 71.9727 -27.3926 Z M 71.9727 -10.1074 L 31.8848 -10.1074 C 30.9082 -10.1074 30.2246 -9.375 30.2246 -8.49609 C 30.2246 -7.61719 30.9082 -6.88477 31.8848 -6.88477 L 71.9727 -6.88477 C 72.9004 -6.88477 73.6328 -7.61719 73.6328 -8.49609 C 73.6328 -9.375 72.9004 -10.1074 71.9727 -10.1074 Z"/>
  </g>
  <g id="Ultralight-M" transform="matrix(1 0 0 1 508.295 1126)">
   <path d="M 25 16.2598 L 77.8809 16.2598 C 86.0352 16.2598 90.3809 11.9141 90.3809 3.71094 L 90.3809 -45.0195 C 90.3809 -48.291 89.7949 -49.8047 87.8418 -51.7578 L 55.6152 -83.9355 C 53.6621 -85.9375 52.1484 -86.5234 48.877 -86.5234 L 25 -86.5234 C 16.9434 -86.5234 12.4512 -82.1777 12.4512 -73.9746 L 12.4512 3.71094 C 12.4512 11.9141 16.7969 16.2598 25 16.2598 Z M 25.0977 13.8672 C 18.3594 13.8672 14.8438 10.3516 14.8438 3.61328 L 14.8438 -73.877 C 14.8438 -80.3711 18.3594 -84.1309 25.0977 -84.1309 L 50.2441 -84.1309 L 50.2441 -52.6855 C 50.2441 -48.1934 52.4414 -46.3867 56.543 -46.3867 L 87.9883 -46.3867 L 87.9883 3.61328 C 87.9883 10.3516 84.5215 13.8672 77.7344 13.8672 Z M 56.6406 -48.7793 C 53.7598 -48.7793 52.6367 -49.9023 52.6367 -52.7832 L 52.6367 -83.4961 L 87.3535 -48.7793 Z M 72.1191 -27.002 L 31.1523 -27.002 C 30.4199 -27.002 29.8828 -26.4648 29.8828 -25.7812 C 29.8828 -25.0977 30.4199 -24.5605 31.1523 -24.5605 L 72.1191 -24.5605 C 72.8516 -24.5605 73.3887 -25.0977 73.3887 -25.7812 C 73.3887 -26.4648 72.8516 -27.002 72.1191 -27.002 Z M 72.1191 -9.66797 L 31.1523 -9.66797 C 30.4199 -9.66797 29.8828 -9.13086 29.8828 -8.44727 C 29.8828 -7.8125 30.4199 -7.22656 31.1523 -7.22656 L 72.1191 -7.22656 C 72.8516 -7.22656 73.3887 -7.8125 73.3887 -8.44727 C 73.3887 -9.13086 72.8516 -9.66797 72.1191 -9.66797 Z"/>
  </g>
  <g id="Black-S" transform="matrix(1 0 0 1 2887.7 696)">
   <path d="M 25 8.1543 L 66.4062 8.1543 C 75.9766 8.1543 81.6406 2.49023 81.6406 -7.08008 L 81.6406 -41.748 C 81.6406 -48.9258 80.3711 -52.832 75.7324 -57.4707 L 60.5469 -72.6562 C 55.9082 -77.2949 52.002 -78.5645 44.8242 -78.5645 L 25 -78.5645 C 15.4297 -78.5645 9.76562 -72.9004 9.76562 -63.3301 L 9.76562 -7.08008 C 9.76562 2.49023 15.4297 8.1543 25 8.1543 Z M 27.2461 -6.00586 C 24.8047 -6.00586 23.9258 -7.08008 23.9258 -9.32617 L 23.9258 -61.084 C 23.9258 -63.3301 24.8047 -64.4043 27.2461 -64.4043 L 39.9902 -64.4043 L 39.9902 -49.707 C 39.9902 -40.918 43.9941 -36.9141 52.7832 -36.9141 L 67.4805 -36.9141 L 67.4805 -9.32617 C 67.4805 -7.08008 66.6016 -6.00586 64.1602 -6.00586 Z M 53.5645 -47.6562 C 51.709 -47.6562 50.7324 -48.6328 50.7324 -50.4883 L 50.7324 -64.1113 L 67.1875 -47.6562 Z M 56.4453 -29.3945 L 34.9121 -29.3945 C 33.3008 -29.3945 32.1289 -28.2227 32.1289 -26.709 C 32.1289 -25.1465 33.3008 -23.9258 34.9121 -23.9258 L 56.4453 -23.9258 C 58.0078 -23.9258 59.1797 -25.1465 59.1797 -26.709 C 59.1797 -28.2227 58.0078 -29.3945 56.4453 -29.3945 Z M 56.4453 -19.1406 L 34.9121 -19.1406 C 33.3008 -19.1406 32.1289 -17.9199 32.1289 -16.3574 C 32.1289 -14.8438 33.3008 -13.6719 34.9121 -13.6719 L 56.4453 -13.6719 C 58.0078 -13.6719 59.1797 -14.8438 59.1797 -16.3574 C 59.1797 -17.9199 58.0078 -19.1406 56.4453 -19.1406 Z"/>
  </g>
  <g id="Heavy-S" transform="matrix(1 0 0 1 2591.79 696)">
   <path d="M 24.3164 7.61719 L 65.4785 7.61719 C 74.7559 7.61719 80.0293 2.34375 80.0293 -6.93359 L 80.0293 -41.4551 C 80.0293 -48.1934 78.9062 -51.7578 74.5605 -56.1035 L 58.2031 -72.6074 C 53.9062 -76.9043 50.293 -78.0273 43.7012 -78.0273 L 24.3164 -78.0273 C 15.0391 -78.0273 9.76562 -72.7539 9.76562 -63.4766 L 9.76562 -6.93359 C 9.76562 2.34375 15.0391 7.61719 24.3164 7.61719 Z M 26.0742 -4.83398 C 23.3887 -4.83398 22.2656 -6.15234 22.2656 -8.69141 L 22.2656 -61.7188 C 22.2656 -64.2578 23.3887 -65.5762 26.123 -65.5762 L 39.6973 -65.5762 L 39.6973 -49.2188 C 39.6973 -41.3086 43.4082 -37.6465 51.3184 -37.6465 L 67.5293 -37.6465 L 67.5293 -8.69141 C 67.5293 -6.15234 66.4062 -4.83398 63.6719 -4.83398 Z M 52.0996 -47.4121 C 50.3418 -47.4121 49.4629 -48.291 49.4629 -50 L 49.4629 -65.0391 L 66.9922 -47.4121 Z M 56.2988 -29.6387 L 33.1543 -29.6387 C 31.5918 -29.6387 30.4199 -28.4668 30.4199 -26.9531 C 30.4199 -25.3906 31.5918 -24.2188 33.1543 -24.2188 L 56.2988 -24.2188 C 57.8613 -24.2188 59.0332 -25.3906 59.0332 -26.9531 C 59.0332 -28.4668 57.8613 -29.6387 56.2988 -29.6387 Z M 56.2988 -18.6523 L 33.1543 -18.6523 C 31.5918 -18.6523 30.4199 -17.4316 30.4199 -15.918 C 30.4199 -14.4043 31.5918 -13.2324 33.1543 -13.2324 L 56.2988 -13.2324 C 57.8613 -13.2324 59.0332 -14.4043 59.0332 -15.918 C 59.0332 -17.4316 57.8613 -18.6523 56.2988 -18.6523 Z"/>
  </g>
  <g id="Bold-S" transform="matrix(1 0 0 1 2295.98 696)">
   <path d="M 23.5352 7.08008 L 64.4531 7.08008 C 73.3398 7.08008 78.2227 2.14844 78.2227 -6.78711 L 78.2227 -41.1133 C 78.2227 -47.4121 77.2949 -50.5371 73.291 -54.5898 L 55.5664 -72.5586 C 51.6602 -76.5137 48.3887 -77.4414 42.4805 -77.4414 L 23.5352 -77.4414 C 14.6484 -77.4414 9.76562 -72.5586 9.76562 -63.623 L 9.76562 -6.78711 C 9.76562 2.14844 14.6484 7.08008 23.5352 7.08008 Z M 24.8047 -3.56445 C 21.7773 -3.56445 20.3613 -5.07812 20.3613 -7.95898 L 20.3613 -62.4512 C 20.3613 -65.332 21.7773 -66.8457 24.8047 -66.8457 L 39.4043 -66.8457 L 39.4043 -48.6816 C 39.4043 -41.748 42.7246 -38.4277 49.6582 -38.4277 L 67.627 -38.4277 L 67.627 -7.95898 C 67.627 -5.07812 66.2109 -3.56445 63.1348 -3.56445 Z M 50.4395 -47.1191 C 48.8281 -47.1191 48.0957 -47.8516 48.0957 -49.4629 L 48.0957 -66.0645 L 66.7969 -47.1191 Z M 56.1523 -29.8828 L 31.2012 -29.8828 C 29.6387 -29.8828 28.4668 -28.7598 28.4668 -27.2461 C 28.4668 -25.7324 29.6387 -24.5117 31.2012 -24.5117 L 56.1523 -24.5117 C 57.7148 -24.5117 58.8379 -25.7324 58.8379 -27.2461 C 58.8379 -28.7598 57.7148 -29.8828 56.1523 -29.8828 Z M 56.1523 -18.1152 L 31.2012 -18.1152 C 29.6387 -18.1152 28.4668 -16.8945 28.4668 -15.3809 C 28.4668 -13.8672 29.6387 -12.7441 31.2012 -12.7441 L 56.1523 -12.7441 C 57.7148 -12.7441 58.8379 -13.8672 58.8379 -15.3809 C 58.8379 -16.8945 57.7148 -18.1152 56.1523 -18.1152 Z"/>
  </g>
  <g id="Semibold-S" transform="matrix(1 0 0 1 1999.91 696)">
   <path d="M 22.998 6.64062 L 63.7695 6.64062 C 72.4121 6.64062 76.9531 2.00195 76.9531 -6.68945 L 76.9531 -40.918 C 76.9531 -46.875 76.1719 -49.707 72.4121 -53.5645 L 53.7598 -72.5098 C 50.0977 -76.2207 47.0703 -77.0508 41.6016 -77.0508 L 22.998 -77.0508 C 14.3555 -77.0508 9.76562 -72.4121 9.76562 -63.7207 L 9.76562 -6.68945 C 9.76562 2.05078 14.3555 6.64062 22.998 6.64062 Z M 23.9258 -2.63672 C 20.6543 -2.63672 19.0918 -4.3457 19.0918 -7.4707 L 19.0918 -62.9395 C 19.0918 -66.0645 20.6543 -67.7734 23.9258 -67.7734 L 39.209 -67.7734 L 39.209 -48.291 C 39.209 -42.041 42.2363 -39.0137 48.4863 -39.0137 L 67.6758 -39.0137 L 67.6758 -7.4707 C 67.6758 -4.3457 66.0645 -2.63672 62.793 -2.63672 Z M 49.3164 -46.875 C 47.8027 -46.875 47.1191 -47.6074 47.1191 -49.1211 L 47.1191 -66.748 L 66.6504 -46.875 Z M 56.0547 -30.0781 L 29.8828 -30.0781 C 28.2715 -30.0781 27.1484 -28.9062 27.1484 -27.4414 C 27.1484 -25.9277 28.2715 -24.707 29.8828 -24.707 L 56.0547 -24.707 C 57.6172 -24.707 58.7402 -25.9277 58.7402 -27.4414 C 58.7402 -28.9062 57.6172 -30.0781 56.0547 -30.0781 Z M 56.0547 -17.7246 L 29.8828 -17.7246 C 28.2715 -17.7246 27.1484 -16.5527 27.1484 -15.0391 C 27.1484 -13.5254 28.2715 -12.4023 29.8828 -12.4023 L 56.0547 -12.4023 C 57.6172 -12.4023 58.7402 -13.5254 58.7402 -15.0391 C 58.7402 -16.5527 57.6172 -17.7246 56.0547 -17.7246 Z"/>
  </g>
  <g id="Medium-S" transform="matrix(1 0 0 1 1703.66 696)">
   <path d="M 22.5586 6.34766 L 63.2324 6.34766 C 71.6797 6.34766 76.0254 1.9043 76.0254 -6.5918 L 76.0254 -40.7227 C 76.0254 -46.4844 75.293 -49.0723 71.7285 -52.7344 L 52.3926 -72.4609 C 48.9258 -75.9766 46.0449 -76.7578 40.918 -76.7578 L 22.5586 -76.7578 C 14.1113 -76.7578 9.76562 -72.3145 9.76562 -63.8184 L 9.76562 -6.5918 C 9.76562 1.95312 14.1113 6.34766 22.5586 6.34766 Z M 23.2422 -1.95312 C 19.8242 -1.95312 18.0664 -3.80859 18.0664 -7.08008 L 18.0664 -63.3301 C 18.0664 -66.6016 19.8242 -68.457 23.291 -68.457 L 39.0625 -68.457 L 39.0625 -47.998 C 39.0625 -42.2363 41.8945 -39.4043 47.6562 -39.4043 L 67.6758 -39.4043 L 67.6758 -7.08008 C 67.6758 -3.80859 65.9668 -1.95312 62.5 -1.95312 Z M 48.4863 -46.7285 C 47.0215 -46.7285 46.3867 -47.3633 46.3867 -48.8281 L 46.3867 -67.2852 L 66.5527 -46.7285 Z M 56.0059 -30.2246 L 28.8574 -30.2246 C 27.2949 -30.2246 26.123 -29.0527 26.123 -27.5879 C 26.123 -26.0742 27.2949 -24.9023 28.8574 -24.9023 L 56.0059 -24.9023 C 57.5195 -24.9023 58.6426 -26.0742 58.6426 -27.5879 C 58.6426 -29.0527 57.5195 -30.2246 56.0059 -30.2246 Z M 56.0059 -17.4316 L 28.8574 -17.4316 C 27.2949 -17.4316 26.123 -16.2598 26.123 -14.7461 C 26.123 -13.2812 27.2949 -12.1582 28.8574 -12.1582 L 56.0059 -12.1582 C 57.5195 -12.1582 58.6426 -13.2812 58.6426 -14.7461 C 58.6426 -16.2598 57.5195 -17.4316 56.0059 -17.4316 Z"/>
  </g>
  <g id="Regular-S" transform="matrix(1 0 0 1 1407.56 696)">
   <path d="M 22.0215 5.95703 L 62.5 5.95703 C 70.7031 5.95703 74.8047 1.80664 74.8047 -6.49414 L 74.8047 -40.5273 C 74.8047 -45.8984 74.2188 -48.2422 70.8496 -51.709 L 50.5859 -72.4121 C 47.4121 -75.6836 44.7754 -76.3672 40.0879 -76.3672 L 22.0215 -76.3672 C 13.8184 -76.3672 9.76562 -72.2168 9.76562 -63.916 L 9.76562 -6.49414 C 9.76562 1.85547 13.8184 5.95703 22.0215 5.95703 Z M 22.3633 -1.07422 C 18.7012 -1.07422 16.7969 -3.07617 16.7969 -6.5918 L 16.7969 -63.8184 C 16.7969 -67.334 18.7012 -69.3359 22.4121 -69.3359 L 38.8672 -69.3359 L 38.8672 -47.6074 C 38.8672 -42.5293 41.4551 -39.9414 46.5332 -39.9414 L 67.7246 -39.9414 L 67.7246 -6.5918 C 67.7246 -3.07617 65.8203 -1.07422 62.1582 -1.07422 Z M 47.3633 -46.5332 C 45.9961 -46.5332 45.4102 -47.1191 45.4102 -48.4863 L 45.4102 -68.0176 L 66.4062 -46.5332 Z M 55.9082 -30.3711 L 27.5391 -30.3711 C 25.9766 -30.3711 24.8047 -29.248 24.8047 -27.7832 C 24.8047 -26.2695 25.9766 -25.0977 27.5391 -25.0977 L 55.9082 -25.0977 C 57.4219 -25.0977 58.5449 -26.2695 58.5449 -27.7832 C 58.5449 -29.248 57.4219 -30.3711 55.9082 -30.3711 Z M 55.9082 -17.0898 L 27.5391 -17.0898 C 25.9766 -17.0898 24.8047 -15.918 24.8047 -14.4043 C 24.8047 -12.9395 25.9766 -11.8164 27.5391 -11.8164 L 55.9082 -11.8164 C 57.4219 -11.8164 58.5449 -12.9395 58.5449 -14.4043 C 58.5449 -15.918 57.4219 -17.0898 55.9082 -17.0898 Z"/>
  </g>
  <g id="Light-S" transform="matrix(1 0 0 1 1111.48 696)">
   <path d="M 21.2891 5.71289 L 62.0605 5.71289 C 69.6777 5.71289 73.5352 1.75781 73.5352 -5.95703 L 73.5352 -41.2598 C 73.5352 -45.752 72.998 -47.7539 70.2148 -50.6348 L 48.3887 -72.7051 C 45.752 -75.4395 43.5547 -76.0742 39.5508 -76.0742 L 21.2891 -76.0742 C 13.6719 -76.0742 9.76562 -72.168 9.76562 -64.4531 L 9.76562 -5.95703 C 9.76562 1.80664 13.623 5.71289 21.2891 5.71289 Z M 21.5332 0.244141 C 17.3828 0.244141 15.1855 -1.95312 15.1855 -6.05469 L 15.1855 -64.3555 C 15.1855 -68.3594 17.3828 -70.6543 21.582 -70.6543 L 39.0137 -70.6543 L 39.0137 -48.0469 C 39.0137 -43.457 41.3574 -41.2109 45.8008 -41.2109 L 68.1152 -41.2109 L 68.1152 -6.05469 C 68.1152 -1.95312 65.9668 0.244141 61.7676 0.244141 Z M 46.4355 -46.3379 C 44.7754 -46.3379 44.1406 -46.9727 44.1406 -48.6328 L 44.1406 -69.5801 L 67.041 -46.3379 Z M 56.1035 -29.8828 L 26.5625 -29.8828 C 25.293 -29.8828 24.3652 -28.9551 24.3652 -27.7832 C 24.3652 -26.6113 25.293 -25.6348 26.5625 -25.6348 L 56.1035 -25.6348 C 57.3242 -25.6348 58.2031 -26.6113 58.2031 -27.7832 C 58.2031 -28.9551 57.3242 -29.8828 56.1035 -29.8828 Z M 56.1035 -16.5039 L 26.5625 -16.5039 C 25.293 -16.5039 24.3652 -15.5762 24.3652 -14.3555 C 24.3652 -13.1836 25.293 -12.2559 26.5625 -12.2559 L 56.1035 -12.2559 C 57.3242 -12.2559 58.2031 -13.1836 58.2031 -14.3555 C 58.2031 -15.5762 57.3242 -16.5039 56.1035 -16.5039 Z"/>
  </g>
  <g id="Thin-S" transform="matrix(1 0 0 1 815.578 696)">
   <path d="M 20.2637 5.37109 L 61.4258 5.37109 C 68.3594 5.37109 71.9238 1.75781 71.9238 -5.22461 L 71.9238 -42.2363 C 71.9238 -45.6055 71.4355 -47.1191 69.3848 -49.1699 L 45.5078 -73.1445 C 43.5547 -75.1465 41.9434 -75.6836 38.8184 -75.6836 L 20.2637 -75.6836 C 13.4277 -75.6836 9.76562 -72.0703 9.76562 -65.1367 L 9.76562 -5.22461 C 9.76562 1.75781 13.3789 5.37109 20.2637 5.37109 Z M 20.4102 2.05078 C 15.5762 2.05078 13.0859 -0.488281 13.0859 -5.32227 L 13.0859 -65.0391 C 13.0859 -69.6777 15.5762 -72.3633 20.459 -72.3633 L 39.209 -72.3633 L 39.209 -48.5352 C 39.209 -44.6289 41.2109 -42.8711 44.9219 -42.8711 L 68.6035 -42.8711 L 68.6035 -5.32227 C 68.6035 -0.488281 66.1133 2.05078 61.2793 2.05078 Z M 45.2148 -46.0449 C 43.2129 -46.0449 42.3828 -46.8262 42.3828 -48.8281 L 42.3828 -71.6309 L 67.8711 -46.0449 Z M 56.3477 -29.248 L 25.293 -29.248 C 24.4141 -29.248 23.8281 -28.6133 23.8281 -27.832 C 23.8281 -27.002 24.4141 -26.3672 25.293 -26.3672 L 56.3477 -26.3672 C 57.1777 -26.3672 57.8125 -27.002 57.8125 -27.832 C 57.8125 -28.6133 57.1777 -29.248 56.3477 -29.248 Z M 56.3477 -15.7227 L 25.293 -15.7227 C 24.4141 -15.7227 23.8281 -15.0879 23.8281 -14.3066 C 23.8281 -13.5254 24.4141 -12.8906 25.293 -12.8906 L 56.3477 -12.8906 C 57.1777 -12.8906 57.8125 -13.5254 57.8125 -14.3066 C 57.8125 -15.0879 57.1777 -15.7227 56.3477 -15.7227 Z"/>
  </g>
  <g id="Ultralight-S" transform="matrix(1 0 0 1 519.281 696)">
   <path d="M 19.7266 5.17578 L 61.084 5.17578 C 67.627 5.17578 71.0938 1.70898 71.0938 -4.83398 L 71.0938 -42.7734 C 71.0938 -45.459 70.6055 -46.7773 68.9453 -48.4375 L 44.043 -73.3398 C 42.3828 -75 41.1133 -75.4883 38.4277 -75.4883 L 19.7266 -75.4883 C 13.3301 -75.4883 9.76562 -72.0215 9.76562 -65.4785 L 9.76562 -4.83398 C 9.76562 1.70898 13.2324 5.17578 19.7266 5.17578 Z M 19.873 2.97852 C 14.6484 2.97852 11.9629 0.244141 11.9629 -4.93164 L 11.9629 -65.3809 C 11.9629 -70.4102 14.6484 -73.291 19.873 -73.291 L 39.3066 -73.291 L 39.3066 -48.8281 C 39.3066 -45.2148 41.1133 -43.7012 44.4336 -43.7012 L 68.8965 -43.7012 L 68.8965 -4.93164 C 68.8965 0.244141 66.2109 2.97852 60.9863 2.97852 Z M 44.5801 -45.8984 C 42.3828 -45.8984 41.5039 -46.7285 41.5039 -48.9258 L 41.5039 -72.7051 L 68.3105 -45.8984 Z M 56.4453 -28.9062 L 24.6094 -28.9062 C 23.9746 -28.9062 23.4863 -28.418 23.4863 -27.832 C 23.4863 -27.2461 23.9746 -26.7578 24.6094 -26.7578 L 56.4453 -26.7578 C 57.0801 -26.7578 57.5684 -27.2461 57.5684 -27.832 C 57.5684 -28.418 57.0801 -28.9062 56.4453 -28.9062 Z M 56.4453 -15.332 L 24.6094 -15.332 C 23.9746 -15.332 23.4863 -14.8438 23.4863 -14.2578 C 23.4863 -13.6719 23.9746 -13.2324 24.6094 -13.2324 L 56.4453 -13.2324 C 57.0801 -13.2324 57.5684 -13.6719 57.5684 -14.2578 C 57.5684 -14.8438 57.0801 -15.332 56.4453 -15.332 Z"/>
  </g>
 </g>
</svg>
