<?xml version="1.0" encoding="UTF-8"?>
<!--Generator: Apple Native CoreSVG 123-->
<!DOCTYPE svg
PUBLIC "-//W3C//DTD SVG 1.1//EN"
       "http://www.w3.org/Graphics/SVG/1.1/DTD/svg11.dtd">
<svg version="1.1" xmlns="http://www.w3.org/2000/svg" xmlns:xlink="http://www.w3.org/1999/xlink" width="3300" height="2200">
 <!--glyph: "uni100213.medium", point size: 100.000000, font version: "Version 15.0d7e11", template writer version: "5"-->
 <g id="Notes">
  <rect height="2200" id="artboard" style="fill:white;opacity:1" width="3300" x="0" y="0"/>
  <line id="" style="fill:none;stroke:black;opacity:1;stroke-width:0.5;" x1="263" x2="3036" y1="292" y2="292"/>
  <text style="stroke:none;fill:black;font-family:-apple-system,&quot;SF Pro Display&quot;,&quot;SF Pro Text&quot;,Helvetica,sans-serif;font-weight:bold;" transform="matrix(1 0 0 1 263 322)">Weight/Scale Variations</text>
  <text style="stroke:none;fill:black;font-family:-apple-system,&quot;SF Pro Display&quot;,&quot;SF Pro Text&quot;,Helvetica,sans-serif;text-anchor:middle;" transform="matrix(1 0 0 1 559.711 322)">Ultralight</text>
  <text style="stroke:none;fill:black;font-family:-apple-system,&quot;SF Pro Display&quot;,&quot;SF Pro Text&quot;,Helvetica,sans-serif;text-anchor:middle;" transform="matrix(1 0 0 1 856.422 322)">Thin</text>
  <text style="stroke:none;fill:black;font-family:-apple-system,&quot;SF Pro Display&quot;,&quot;SF Pro Text&quot;,Helvetica,sans-serif;text-anchor:middle;" transform="matrix(1 0 0 1 1153.13 322)">Light</text>
  <text style="stroke:none;fill:black;font-family:-apple-system,&quot;SF Pro Display&quot;,&quot;SF Pro Text&quot;,Helvetica,sans-serif;text-anchor:middle;" transform="matrix(1 0 0 1 1449.84 322)">Regular</text>
  <text style="stroke:none;fill:black;font-family:-apple-system,&quot;SF Pro Display&quot;,&quot;SF Pro Text&quot;,Helvetica,sans-serif;text-anchor:middle;" transform="matrix(1 0 0 1 1746.56 322)">Medium</text>
  <text style="stroke:none;fill:black;font-family:-apple-system,&quot;SF Pro Display&quot;,&quot;SF Pro Text&quot;,Helvetica,sans-serif;text-anchor:middle;" transform="matrix(1 0 0 1 2043.27 322)">Semibold</text>
  <text style="stroke:none;fill:black;font-family:-apple-system,&quot;SF Pro Display&quot;,&quot;SF Pro Text&quot;,Helvetica,sans-serif;text-anchor:middle;" transform="matrix(1 0 0 1 2339.98 322)">Bold</text>
  <text style="stroke:none;fill:black;font-family:-apple-system,&quot;SF Pro Display&quot;,&quot;SF Pro Text&quot;,Helvetica,sans-serif;text-anchor:middle;" transform="matrix(1 0 0 1 2636.69 322)">Heavy</text>
  <text style="stroke:none;fill:black;font-family:-apple-system,&quot;SF Pro Display&quot;,&quot;SF Pro Text&quot;,Helvetica,sans-serif;text-anchor:middle;" transform="matrix(1 0 0 1 2933.4 322)">Black</text>
  <line id="" style="fill:none;stroke:black;opacity:1;stroke-width:0.5;" x1="263" x2="3036" y1="1903" y2="1903"/>
  <g id="" transform="matrix(1 0 0 1 263 1933)">
   <path d="M 9.24805 0.830078 C 13.5547 0.830078 17.1387 -2.74414 17.1387 -7.05078 C 17.1387 -11.3574 13.5449 -14.9316 9.23828 -14.9316 C 4.94141 -14.9316 1.36719 -11.3574 1.36719 -7.05078 C 1.36719 -2.74414 4.95117 0.830078 9.24805 0.830078 Z M 9.24805 -0.654297 C 5.70312 -0.654297 2.87109 -3.49609 2.87109 -7.05078 C 2.87109 -10.6055 5.69336 -13.4473 9.23828 -13.4473 C 12.793 -13.4473 15.6348 -10.6055 15.6445 -7.05078 C 15.6543 -3.49609 12.8027 -0.654297 9.24805 -0.654297 Z M 9.22852 -3.42773 C 9.69727 -3.42773 9.9707 -3.74023 9.9707 -4.25781 L 9.9707 -6.31836 L 12.1973 -6.31836 C 12.6953 -6.31836 13.0371 -6.57227 13.0371 -7.04102 C 13.0371 -7.51953 12.7148 -7.7832 12.1973 -7.7832 L 9.9707 -7.7832 L 9.9707 -10.0098 C 9.9707 -10.5273 9.69727 -10.8496 9.22852 -10.8496 C 8.75977 -10.8496 8.50586 -10.5078 8.50586 -10.0098 L 8.50586 -7.7832 L 6.29883 -7.7832 C 5.78125 -7.7832 5.44922 -7.51953 5.44922 -7.04102 C 5.44922 -6.57227 5.80078 -6.31836 6.29883 -6.31836 L 8.50586 -6.31836 L 8.50586 -4.25781 C 8.50586 -3.75977 8.75977 -3.42773 9.22852 -3.42773 Z"/>
  </g>
  <g id="" transform="matrix(1 0 0 1 281.506 1933)">
   <path d="M 11.709 2.91016 C 17.1582 2.91016 21.6699 -1.60156 21.6699 -7.05078 C 21.6699 -12.4902 17.1484 -17.0117 11.6992 -17.0117 C 6.25977 -17.0117 1.74805 -12.4902 1.74805 -7.05078 C 1.74805 -1.60156 6.26953 2.91016 11.709 2.91016 Z M 11.709 1.25 C 7.09961 1.25 3.41797 -2.44141 3.41797 -7.05078 C 3.41797 -11.6504 7.08984 -15.3516 11.6992 -15.3516 C 16.3086 -15.3516 20 -11.6504 20.0098 -7.05078 C 20.0195 -2.44141 16.3184 1.25 11.709 1.25 Z M 11.6895 -2.41211 C 12.207 -2.41211 12.5195 -2.77344 12.5195 -3.33984 L 12.5195 -6.23047 L 15.5762 -6.23047 C 16.123 -6.23047 16.5039 -6.51367 16.5039 -7.03125 C 16.5039 -7.55859 16.1426 -7.86133 15.5762 -7.86133 L 12.5195 -7.86133 L 12.5195 -10.9277 C 12.5195 -11.5039 12.207 -11.8555 11.6895 -11.8555 C 11.1719 -11.8555 10.8789 -11.4844 10.8789 -10.9277 L 10.8789 -7.86133 L 7.83203 -7.86133 C 7.26562 -7.86133 6.89453 -7.55859 6.89453 -7.03125 C 6.89453 -6.51367 7.28516 -6.23047 7.83203 -6.23047 L 10.8789 -6.23047 L 10.8789 -3.33984 C 10.8789 -2.79297 11.1719 -2.41211 11.6895 -2.41211 Z"/>
  </g>
  <g id="" transform="matrix(1 0 0 1 304.924 1933)">
   <path d="M 14.9707 5.67383 C 21.9336 5.67383 27.6953 -0.078125 27.6953 -7.04102 C 27.6953 -14.0039 21.9238 -19.7559 14.9609 -19.7559 C 8.00781 -19.7559 2.25586 -14.0039 2.25586 -7.04102 C 2.25586 -0.078125 8.01758 5.67383 14.9707 5.67383 Z M 14.9707 3.85742 C 8.93555 3.85742 4.08203 -1.00586 4.08203 -7.04102 C 4.08203 -13.0762 8.92578 -17.9395 14.9609 -17.9395 C 21.0059 -17.9395 25.8594 -13.0762 25.8691 -7.04102 C 25.8789 -1.00586 21.0156 3.85742 14.9707 3.85742 Z M 14.9512 -1.06445 C 15.5176 -1.06445 15.8691 -1.45508 15.8691 -2.06055 L 15.8691 -6.13281 L 20.1074 -6.13281 C 20.6934 -6.13281 21.1133 -6.46484 21.1133 -7.02148 C 21.1133 -7.59766 20.7227 -7.93945 20.1074 -7.93945 L 15.8691 -7.93945 L 15.8691 -12.1875 C 15.8691 -12.8027 15.5176 -13.1934 14.9512 -13.1934 C 14.3848 -13.1934 14.0625 -12.7832 14.0625 -12.1875 L 14.0625 -7.93945 L 9.83398 -7.93945 C 9.21875 -7.93945 8.80859 -7.59766 8.80859 -7.02148 C 8.80859 -6.46484 9.23828 -6.13281 9.83398 -6.13281 L 14.0625 -6.13281 L 14.0625 -2.06055 C 14.0625 -1.47461 14.3848 -1.06445 14.9512 -1.06445 Z"/>
  </g>
  <text style="stroke:none;fill:black;font-family:-apple-system,&quot;SF Pro Display&quot;,&quot;SF Pro Text&quot;,Helvetica,sans-serif;font-weight:bold;" transform="matrix(1 0 0 1 263 1953)">Design Variations</text>
  <text style="stroke:none;fill:black;font-family:-apple-system,&quot;SF Pro Display&quot;,&quot;SF Pro Text&quot;,Helvetica,sans-serif;" transform="matrix(1 0 0 1 263 1971)">Symbols are supported in up to nine weights and three scales.</text>
  <text style="stroke:none;fill:black;font-family:-apple-system,&quot;SF Pro Display&quot;,&quot;SF Pro Text&quot;,Helvetica,sans-serif;" transform="matrix(1 0 0 1 263 1989)">For optimal layout with text and other symbols, vertically align</text>
  <text style="stroke:none;fill:black;font-family:-apple-system,&quot;SF Pro Display&quot;,&quot;SF Pro Text&quot;,Helvetica,sans-serif;" transform="matrix(1 0 0 1 263 2007)">symbols with the adjacent text.</text>
  <rect height="14" id="" style="fill:#00AEEF;stroke:none;opacity:0.4;" width="3" x="776" y="1919"/>
  <g id="" transform="matrix(1 0 0 1 779 1933)">
   <path d="M 10.5273 0 L 12.373 0 L 7.17773 -14.0918 L 5.43945 -14.0918 L 0.244141 0 L 2.08984 0 L 3.50586 -4.0332 L 9.11133 -4.0332 Z M 6.2793 -11.9531 L 6.33789 -11.9531 L 8.59375 -5.52734 L 4.02344 -5.52734 Z"/>
  </g>
  <rect height="14" id="" style="fill:#00AEEF;stroke:none;opacity:0.4;" width="3" x="791.617" y="1919"/>
  <text style="stroke:none;fill:black;font-family:-apple-system,&quot;SF Pro Display&quot;,&quot;SF Pro Text&quot;,Helvetica,sans-serif;font-weight:bold;" transform="matrix(1 0 0 1 776 1953)">Margins</text>
  <text style="stroke:none;fill:black;font-family:-apple-system,&quot;SF Pro Display&quot;,&quot;SF Pro Text&quot;,Helvetica,sans-serif;" transform="matrix(1 0 0 1 776 1971)">Leading and trailing margins on the left and right side of each symbol</text>
  <text style="stroke:none;fill:black;font-family:-apple-system,&quot;SF Pro Display&quot;,&quot;SF Pro Text&quot;,Helvetica,sans-serif;" transform="matrix(1 0 0 1 776 1989)">can be adjusted by modifying the width of the blue rectangles.</text>
  <text style="stroke:none;fill:black;font-family:-apple-system,&quot;SF Pro Display&quot;,&quot;SF Pro Text&quot;,Helvetica,sans-serif;" transform="matrix(1 0 0 1 776 2007)">Modifications are automatically applied proportionally to all</text>
  <text style="stroke:none;fill:black;font-family:-apple-system,&quot;SF Pro Display&quot;,&quot;SF Pro Text&quot;,Helvetica,sans-serif;" transform="matrix(1 0 0 1 776 2025)">scales and weights.</text>
  <g id="" transform="matrix(1 0 0 1 1289 1933)">
   <path d="M 2.83203 3.11523 L 4.375 4.6582 C 5.22461 5.48828 6.19141 5.41992 7.06055 4.46289 L 17.2754 -6.66016 C 17.7051 -6.36719 18.0957 -6.37695 18.5645 -6.47461 L 19.6094 -6.68945 L 20.3027 -5.99609 L 20.2539 -5.47852 C 20.1855 -4.95117 20.3516 -4.53125 20.8496 -4.0332 L 21.6602 -3.22266 C 22.168 -2.71484 22.8223 -2.68555 23.3008 -3.16406 L 26.5527 -6.41602 C 27.0312 -6.89453 27.0117 -7.54883 26.5039 -8.05664 L 25.6836 -8.87695 C 25.1855 -9.375 24.7754 -9.55078 24.2383 -9.47266 L 23.7109 -9.41406 L 23.0566 -10.0781 L 23.3398 -11.2207 C 23.4863 -11.7871 23.3398 -12.2559 22.7148 -12.8613 L 20.3027 -15.2539 C 16.7578 -18.7793 12.2266 -18.6719 9.11133 -15.5371 C 8.69141 -15.1074 8.64258 -14.5215 8.91602 -14.0918 C 9.15039 -13.7207 9.62891 -13.4961 10.2734 -13.6621 C 11.7871 -14.043 13.3008 -13.9258 14.7852 -12.9199 L 14.1602 -11.3379 C 13.9258 -10.752 13.9453 -10.2734 14.1797 -9.83398 L 3.01758 0.439453 C 2.08008 1.30859 1.97266 2.25586 2.83203 3.11523 Z M 10.6738 -15.1465 C 13.3398 -17.1387 16.6504 -16.8262 19.0527 -14.4141 L 21.6797 -11.8066 C 21.9141 -11.5723 21.9434 -11.3867 21.8848 -11.0938 L 21.5039 -9.53125 L 23.0762 -7.95898 L 24.043 -8.04688 C 24.3262 -8.07617 24.4141 -8.05664 24.6387 -7.83203 L 25.2637 -7.20703 L 22.5098 -4.46289 L 21.8848 -5.07812 C 21.6602 -5.30273 21.6406 -5.40039 21.6699 -5.68359 L 21.7578 -6.64062 L 20.1953 -8.20312 L 18.5742 -7.89062 C 18.291 -7.83203 18.1445 -7.83203 17.9102 -8.07617 L 15.7324 -10.2539 C 15.5078 -10.4883 15.4785 -10.625 15.6055 -10.9473 L 16.5527 -13.2227 C 14.9512 -14.7559 12.8418 -15.6055 10.8008 -14.9512 C 10.7129 -14.9219 10.6445 -14.9414 10.6152 -14.9805 C 10.5859 -15.0293 10.5859 -15.0781 10.6738 -15.1465 Z M 4.10156 2.41211 C 3.61328 1.91406 3.78906 1.61133 4.12109 1.30859 L 15.0781 -8.80859 L 16.3086 -7.57812 L 6.15234 3.34961 C 5.84961 3.68164 5.46875 3.7793 5.06836 3.37891 Z"/>
  </g>
  <text style="stroke:none;fill:black;font-family:-apple-system,&quot;SF Pro Display&quot;,&quot;SF Pro Text&quot;,Helvetica,sans-serif;font-weight:bold;" transform="matrix(1 0 0 1 1289 1953)">Exporting</text>
  <text style="stroke:none;fill:black;font-family:-apple-system,&quot;SF Pro Display&quot;,&quot;SF Pro Text&quot;,Helvetica,sans-serif;" transform="matrix(1 0 0 1 1289 1971)">Symbols should be outlined when exporting to ensure the</text>
  <text style="stroke:none;fill:black;font-family:-apple-system,&quot;SF Pro Display&quot;,&quot;SF Pro Text&quot;,Helvetica,sans-serif;" transform="matrix(1 0 0 1 1289 1989)">design is preserved when submitting to Xcode.</text>
  <text id="template-version" style="stroke:none;fill:black;font-family:-apple-system,&quot;SF Pro Display&quot;,&quot;SF Pro Text&quot;,Helvetica,sans-serif;text-anchor:end;" transform="matrix(1 0 0 1 3036 1933)">Template v.1.0</text>
  <text style="stroke:none;fill:black;font-family:-apple-system,&quot;SF Pro Display&quot;,&quot;SF Pro Text&quot;,Helvetica,sans-serif;text-anchor:end;" transform="matrix(1 0 0 1 3036 1951)">Generated from trash.circle</text>
  <text style="stroke:none;fill:black;font-family:-apple-system,&quot;SF Pro Display&quot;,&quot;SF Pro Text&quot;,Helvetica,sans-serif;text-anchor:end;" transform="matrix(1 0 0 1 3036 1969)">Typeset at 100 points</text>
  <text style="stroke:none;fill:black;font-family:-apple-system,&quot;SF Pro Display&quot;,&quot;SF Pro Text&quot;,Helvetica,sans-serif;" transform="matrix(1 0 0 1 263 726)">Small</text>
  <text style="stroke:none;fill:black;font-family:-apple-system,&quot;SF Pro Display&quot;,&quot;SF Pro Text&quot;,Helvetica,sans-serif;" transform="matrix(1 0 0 1 263 1156)">Medium</text>
  <text style="stroke:none;fill:black;font-family:-apple-system,&quot;SF Pro Display&quot;,&quot;SF Pro Text&quot;,Helvetica,sans-serif;" transform="matrix(1 0 0 1 263 1586)">Large</text>
 </g>
 <g id="Guides">
  <g id="H-reference" style="fill:#27AAE1;stroke:none;" transform="matrix(1 0 0 1 339 696)">
   <path d="M 54.9316 0 L 57.666 0 L 30.5664 -70.459 L 28.0762 -70.459 L 0.976562 0 L 3.66211 0 L 12.9395 -24.4629 L 45.7031 -24.4629 Z M 29.1992 -67.0898 L 29.4434 -67.0898 L 44.8242 -26.709 L 13.8184 -26.709 Z"/>
  </g>
  <line id="Baseline-S" style="fill:none;stroke:#27AAE1;opacity:1;stroke-width:0.577;" x1="263" x2="3036" y1="696" y2="696"/>
  <line id="Capline-S" style="fill:none;stroke:#27AAE1;opacity:1;stroke-width:0.577;" x1="263" x2="3036" y1="625.541" y2="625.541"/>
  <g id="H-reference" style="fill:#27AAE1;stroke:none;" transform="matrix(1 0 0 1 339 1126)">
   <path d="M 54.9316 0 L 57.666 0 L 30.5664 -70.459 L 28.0762 -70.459 L 0.976562 0 L 3.66211 0 L 12.9395 -24.4629 L 45.7031 -24.4629 Z M 29.1992 -67.0898 L 29.4434 -67.0898 L 44.8242 -26.709 L 13.8184 -26.709 Z"/>
  </g>
  <line id="Baseline-M" style="fill:none;stroke:#27AAE1;opacity:1;stroke-width:0.577;" x1="263" x2="3036" y1="1126" y2="1126"/>
  <line id="Capline-M" style="fill:none;stroke:#27AAE1;opacity:1;stroke-width:0.577;" x1="263" x2="3036" y1="1055.54" y2="1055.54"/>
  <g id="H-reference" style="fill:#27AAE1;stroke:none;" transform="matrix(1 0 0 1 339 1556)">
   <path d="M 54.9316 0 L 57.666 0 L 30.5664 -70.459 L 28.0762 -70.459 L 0.976562 0 L 3.66211 0 L 12.9395 -24.4629 L 45.7031 -24.4629 Z M 29.1992 -67.0898 L 29.4434 -67.0898 L 44.8242 -26.709 L 13.8184 -26.709 Z"/>
  </g>
  <line id="Baseline-L" style="fill:none;stroke:#27AAE1;opacity:1;stroke-width:0.577;" x1="263" x2="3036" y1="1556" y2="1556"/>
  <line id="Capline-L" style="fill:none;stroke:#27AAE1;opacity:1;stroke-width:0.577;" x1="263" x2="3036" y1="1485.54" y2="1485.54"/>
  <rect height="119.336" id="left-margin" style="fill:#00AEEF;stroke:none;opacity:0.4;" width="8.74023" x="1391.3" y="1030.79"/>
  <rect height="119.336" id="right-margin" style="fill:#00AEEF;stroke:none;opacity:0.4;" width="8.74023" x="1499.65" y="1030.79"/>
 </g>
 <g id="Symbols">
  <g id="Black-L" transform="matrix(1 0 0 1 2854.05 1556)">
   <path d="M 79.3457 32.8613 C 116.748 32.8613 147.412 2.19727 147.412 -35.2051 C 147.412 -72.6074 116.748 -103.271 79.2969 -103.271 C 41.8945 -103.271 11.2793 -72.6074 11.2793 -35.2051 C 11.2793 2.19727 41.9434 32.8613 79.3457 32.8613 Z M 79.3457 12.4023 C 52.9785 12.4023 31.7383 -8.83789 31.7383 -35.2051 C 31.7383 -61.5723 52.9297 -82.8125 79.2969 -82.8125 C 105.664 -82.8125 126.953 -61.5723 126.953 -35.2051 C 127.002 -8.83789 105.713 12.4023 79.3457 12.4023 Z M 66.2109 -0.439453 L 92.334 -0.439453 C 97.998 -0.439453 100.977 -3.17383 101.318 -8.78906 L 103.369 -52.1484 L 106.152 -52.1484 C 108.74 -52.1484 110.547 -53.9551 110.547 -56.4453 C 110.547 -58.9355 108.74 -60.6445 106.152 -60.6445 L 94.5801 -60.6445 L 94.5801 -63.5742 C 94.5801 -69.3848 90.7715 -72.8516 84.082 -72.8516 L 74.4141 -72.8516 C 67.8223 -72.8516 63.916 -69.3848 63.916 -63.5742 L 63.916 -60.6445 L 52.3926 -60.6445 C 49.8535 -60.6445 48.0469 -58.9355 47.9492 -56.4453 C 47.9004 -53.9551 49.8535 -52.1484 52.3926 -52.1484 L 55.2246 -52.1484 L 57.2266 -8.78906 C 57.5195 -3.17383 60.5957 -0.439453 66.2109 -0.439453 Z M 72.168 -60.6445 L 72.2168 -63.3301 C 72.2656 -64.7461 73.3887 -65.7227 74.8047 -65.7227 L 83.6914 -65.7227 C 85.2051 -65.7227 86.2305 -64.7461 86.2793 -63.3301 L 86.377 -60.6445 Z M 68.8965 -9.0332 C 67.3828 -9.0332 66.4062 -10.0586 66.3086 -11.6211 L 65.332 -45.8496 C 65.2344 -47.5098 66.2598 -48.6328 67.8711 -48.6328 C 69.4336 -48.6328 70.459 -47.6074 70.5566 -45.9961 L 71.5332 -11.6699 C 71.582 -10.1074 70.5078 -9.0332 68.8965 -9.0332 Z M 79.2969 -9.0332 C 77.6855 -9.0332 76.6113 -10.0586 76.6113 -11.6211 L 76.6113 -46.0938 C 76.6113 -47.6562 77.6855 -48.6328 79.2969 -48.6328 C 80.8594 -48.6328 81.9336 -47.6562 81.9336 -46.0938 L 81.9336 -11.6211 C 81.9336 -10.0586 80.8594 -9.0332 79.2969 -9.0332 Z M 89.5996 -9.0332 C 88.0371 -9.0332 86.9141 -10.1074 87.0117 -11.6699 L 87.9883 -45.9961 C 88.0859 -47.6074 89.1113 -48.6328 90.625 -48.6328 C 92.2852 -48.6328 93.2617 -47.5098 93.2129 -45.8496 L 92.1875 -11.6211 C 92.1387 -10.0586 91.1621 -9.0332 89.5996 -9.0332 Z"/>
  </g>
  <g id="Heavy-L" transform="matrix(1 0 0 1 2558.39 1556)">
   <path d="M 78.2715 31.7871 C 115.088 31.7871 145.312 1.61133 145.312 -35.2051 C 145.312 -72.0215 115.039 -102.197 78.2715 -102.197 C 41.4551 -102.197 11.2793 -72.0215 11.2793 -35.2051 C 11.2793 1.61133 41.5039 31.7871 78.2715 31.7871 Z M 78.2715 14.0137 C 51.0254 14.0137 29.0527 -7.95898 29.0527 -35.2051 C 29.0527 -62.5 50.9766 -84.4727 78.2715 -84.4727 C 105.518 -84.4727 127.49 -62.5 127.539 -35.2051 C 127.539 -7.95898 105.566 14.0137 78.2715 14.0137 Z M 64.5996 0.146484 L 91.8945 0.146484 C 97.2168 0.146484 100.146 -2.53906 100.439 -7.8125 L 102.588 -53.2227 L 105.713 -53.2227 C 108.008 -53.2227 109.717 -54.9316 109.717 -57.1777 C 109.717 -59.4727 108.008 -61.084 105.713 -61.084 L 93.3594 -61.084 L 93.3594 -64.5508 C 93.3594 -70.0684 89.6973 -73.4375 83.4961 -73.4375 L 72.9492 -73.4375 C 66.7969 -73.4375 63.0859 -70.0684 63.0859 -64.5508 L 63.0859 -61.084 L 50.7324 -61.084 C 48.4375 -61.084 46.7285 -59.4727 46.7285 -57.1777 C 46.6797 -54.9316 48.4375 -53.2227 50.7324 -53.2227 L 53.9551 -53.2227 L 56.0547 -7.8125 C 56.3477 -2.53906 59.3262 0.146484 64.5996 0.146484 Z M 70.7031 -61.084 L 70.752 -64.1602 C 70.8008 -65.6738 71.9727 -66.6504 73.4863 -66.6504 L 82.8613 -66.6504 C 84.4727 -66.6504 85.5957 -65.6738 85.6445 -64.1602 L 85.6934 -61.084 Z M 67.5781 -8.10547 C 66.1133 -8.10547 65.1367 -9.08203 65.0879 -10.5957 L 63.8672 -46.8262 C 63.7695 -48.4375 64.7949 -49.5117 66.3574 -49.5117 C 67.8711 -49.5117 68.8477 -48.4863 68.9453 -46.9238 L 70.1172 -10.6934 C 70.166 -9.13086 69.1406 -8.10547 67.5781 -8.10547 Z M 78.2227 -8.10547 C 76.6602 -8.10547 75.6348 -9.13086 75.6348 -10.6445 L 75.6348 -47.0215 C 75.6348 -48.5352 76.6602 -49.5117 78.2227 -49.5117 C 79.7852 -49.5117 80.8105 -48.5352 80.8105 -47.0215 L 80.8105 -10.6445 C 80.8105 -9.13086 79.7852 -8.10547 78.2227 -8.10547 Z M 88.8672 -8.10547 C 87.3047 -8.10547 86.2793 -9.13086 86.3281 -10.6934 L 87.5 -46.9238 C 87.5977 -48.4863 88.5742 -49.5117 90.0879 -49.5117 C 91.6504 -49.5117 92.6758 -48.4375 92.5781 -46.8262 L 91.3574 -10.5957 C 91.3086 -9.08203 90.332 -8.10547 88.8672 -8.10547 Z"/>
  </g>
  <g id="Bold-L" transform="matrix(1 0 0 1 2262.88 1556)">
   <path d="M 77.0996 30.6152 C 113.232 30.6152 142.92 0.878906 142.92 -35.2051 C 142.92 -71.3379 113.184 -101.025 77.0508 -101.025 C 40.9668 -101.025 11.2793 -71.3379 11.2793 -35.2051 C 11.2793 0.878906 41.0156 30.6152 77.0996 30.6152 Z M 77.0996 15.8691 C 48.8281 15.8691 26.0742 -6.93359 26.0742 -35.2051 C 26.0742 -63.4766 48.7793 -86.2793 77.0508 -86.2793 C 105.371 -86.2793 128.125 -63.4766 128.174 -35.2051 C 128.174 -6.93359 105.371 15.8691 77.0996 15.8691 Z M 62.8418 0.830078 L 91.3574 0.830078 C 96.3379 0.830078 99.2188 -1.80664 99.4629 -6.78711 L 101.709 -54.4434 L 105.225 -54.4434 C 107.275 -54.4434 108.789 -56.0059 108.789 -58.0078 C 108.789 -60.0586 107.275 -61.5234 105.225 -61.5234 L 91.9922 -61.5234 L 91.9922 -65.625 C 91.9922 -70.8984 88.4766 -74.1211 82.8125 -74.1211 L 71.3379 -74.1211 C 65.7227 -74.1211 62.207 -70.8984 62.207 -65.625 L 62.207 -61.5234 L 48.877 -61.5234 C 46.875 -61.5234 45.3125 -60.0586 45.3125 -58.0078 C 45.2637 -56.0059 46.875 -54.4434 48.877 -54.4434 L 52.5391 -54.4434 L 54.7363 -6.78711 C 54.9805 -1.80664 57.8613 0.830078 62.8418 0.830078 Z M 69.0918 -61.5234 L 69.1406 -65.0391 C 69.1406 -66.6504 70.3613 -67.7246 72.0215 -67.7246 L 81.9824 -67.7246 C 83.6914 -67.7246 84.9121 -66.6504 84.9121 -65.0391 L 84.9609 -61.5234 Z M 66.1133 -7.03125 C 64.6484 -7.03125 63.7695 -8.00781 63.6719 -9.47266 L 62.207 -47.9004 C 62.1094 -49.4141 63.1348 -50.4395 64.6484 -50.4395 C 66.1133 -50.4395 67.0898 -49.4629 67.1387 -47.9492 L 68.5059 -9.57031 C 68.6035 -8.05664 67.627 -7.03125 66.1133 -7.03125 Z M 77.0508 -7.08008 C 75.5371 -7.08008 74.5117 -8.05664 74.5117 -9.52148 L 74.5117 -47.998 C 74.5117 -49.4629 75.5371 -50.4395 77.0508 -50.4395 C 78.5645 -50.4395 79.5898 -49.4629 79.5898 -47.998 L 79.5898 -9.52148 C 79.5898 -8.05664 78.5645 -7.08008 77.0508 -7.08008 Z M 87.9883 -7.03125 C 86.4746 -7.03125 85.498 -8.05664 85.5957 -9.57031 L 86.9141 -47.9492 C 87.0117 -49.4629 87.9883 -50.4395 89.4531 -50.4395 C 90.9668 -50.4395 91.9922 -49.4141 91.8945 -47.9004 L 90.4297 -9.47266 C 90.332 -8.00781 89.4043 -7.03125 87.9883 -7.03125 Z"/>
  </g>
  <g id="Semibold-L" transform="matrix(1 0 0 1 1966.97 1556)">
   <path d="M 76.2695 29.7852 C 111.914 29.7852 141.309 0.439453 141.309 -35.2051 C 141.309 -70.8496 111.865 -100.244 76.2695 -100.244 C 40.625 -100.244 11.2793 -70.8496 11.2793 -35.2051 C 11.2793 0.439453 40.6738 29.7852 76.2695 29.7852 Z M 76.2695 17.0898 C 47.3145 17.0898 24.0234 -6.25 24.0234 -35.2051 C 24.0234 -64.209 47.2656 -87.5 76.2695 -87.5 C 105.225 -87.5 128.564 -64.209 128.613 -35.2051 C 128.662 -6.25 105.273 17.0898 76.2695 17.0898 Z M 61.5723 1.26953 L 91.0156 1.26953 C 95.752 1.26953 98.5352 -1.31836 98.7793 -6.05469 L 101.123 -55.3223 L 104.883 -55.3223 C 106.738 -55.3223 108.154 -56.7383 108.154 -58.5938 C 108.154 -60.4492 106.738 -61.8652 104.883 -61.8652 L 91.0156 -61.8652 L 91.0156 -66.4062 C 91.0156 -71.4355 87.6465 -74.6094 82.3242 -74.6094 L 70.2148 -74.6094 C 64.9414 -74.6094 61.5723 -71.4355 61.5723 -66.4062 L 61.5723 -61.8652 L 47.6074 -61.8652 C 45.8008 -61.8652 44.3359 -60.4492 44.3359 -58.5938 C 44.2871 -56.7383 45.8008 -55.3223 47.6074 -55.3223 L 51.5625 -55.3223 L 53.8574 -6.05469 C 54.1016 -1.31836 56.8848 1.26953 61.5723 1.26953 Z M 67.9688 -61.8652 L 67.9688 -65.6738 C 68.0176 -67.3828 69.2871 -68.457 70.9961 -68.457 L 81.3477 -68.457 C 83.1543 -68.457 84.4238 -67.3828 84.4238 -65.6738 L 84.4727 -61.8652 Z M 65.0391 -6.29883 C 63.6719 -6.29883 62.793 -7.27539 62.6953 -8.69141 L 61.0352 -48.6328 C 60.9863 -50.0977 61.9629 -51.123 63.4766 -51.123 C 64.8926 -51.123 65.8691 -50.1465 65.918 -48.6816 L 67.4316 -8.78906 C 67.4805 -7.32422 66.5527 -6.29883 65.0391 -6.29883 Z M 76.2695 -6.34766 C 74.7559 -6.34766 73.7305 -7.32422 73.7305 -8.78906 L 73.7305 -48.7305 C 73.7305 -50.1465 74.707 -51.123 76.2695 -51.123 C 77.7344 -51.123 78.7598 -50.1465 78.7598 -48.7305 L 78.7598 -8.78906 C 78.7598 -7.32422 77.7344 -6.34766 76.2695 -6.34766 Z M 87.4023 -6.29883 C 85.9375 -6.29883 84.9609 -7.32422 85.0586 -8.78906 L 86.5723 -48.6816 C 86.6211 -50.1465 87.5977 -51.123 89.0137 -51.123 C 90.5273 -51.123 91.5039 -50.0977 91.4551 -48.6328 L 89.7949 -8.69141 C 89.6973 -7.27539 88.8184 -6.29883 87.4023 -6.29883 Z"/>
  </g>
  <g id="Medium-L" transform="matrix(1 0 0 1 1670.87 1556)">
   <path d="M 75.6836 29.1992 C 110.938 29.1992 140.088 0.0488281 140.088 -35.2051 C 140.088 -70.459 110.889 -99.6094 75.6348 -99.6094 C 40.3809 -99.6094 11.2793 -70.459 11.2793 -35.2051 C 11.2793 0.0488281 40.3809 29.1992 75.6836 29.1992 Z M 75.6836 18.0664 C 46.1426 18.0664 22.4609 -5.71289 22.4609 -35.2051 C 22.4609 -64.6973 46.1426 -88.4766 75.6348 -88.4766 C 105.127 -88.4766 128.906 -64.6973 128.906 -35.2051 C 128.955 -5.71289 105.176 18.0664 75.6836 18.0664 Z M 60.6445 1.61133 L 90.7715 1.61133 C 95.3125 1.61133 98.0469 -0.976562 98.291 -5.46875 L 100.684 -55.957 L 104.59 -55.957 C 106.299 -55.957 107.666 -57.3242 107.666 -59.0332 C 107.666 -60.7422 106.299 -62.1094 104.59 -62.1094 L 90.332 -62.1094 L 90.332 -66.9922 C 90.332 -71.875 87.0117 -75 81.9824 -75 L 69.3359 -75 C 64.4043 -75 61.084 -71.875 61.084 -66.9922 L 61.084 -62.1094 L 46.6797 -62.1094 C 44.9707 -62.1094 43.6035 -60.7422 43.5547 -59.0332 C 43.5547 -57.3242 44.9707 -55.957 46.6797 -55.957 L 50.8301 -55.957 L 53.1738 -5.46875 C 53.3691 -0.976562 56.1523 1.61133 60.6445 1.61133 Z M 67.1387 -62.1094 L 67.1387 -66.1621 C 67.1387 -67.9199 68.457 -69.043 70.2148 -69.043 L 80.8594 -69.043 C 82.7637 -69.043 84.0332 -67.9199 84.0332 -66.1621 L 84.082 -62.1094 Z M 64.2578 -5.76172 C 62.9395 -5.76172 62.0605 -6.73828 61.9629 -8.10547 L 60.1562 -49.1699 C 60.1074 -50.6348 61.084 -51.6113 62.5977 -51.6113 C 63.9648 -51.6113 64.9414 -50.6836 64.9902 -49.2188 L 66.6016 -8.20312 C 66.6992 -6.73828 65.7715 -5.76172 64.2578 -5.76172 Z M 75.6348 -5.81055 C 74.1699 -5.81055 73.1934 -6.78711 73.1934 -8.20312 L 73.1934 -49.2188 C 73.1934 -50.6348 74.1211 -51.6113 75.6348 -51.6113 C 77.1484 -51.6113 78.0762 -50.6348 78.0762 -49.2188 L 78.0762 -8.20312 C 78.0762 -6.78711 77.0508 -5.81055 75.6348 -5.81055 Z M 86.9629 -5.76172 C 85.498 -5.76172 84.5703 -6.73828 84.668 -8.20312 L 86.2793 -49.2188 C 86.3281 -50.6836 87.3047 -51.6113 88.6719 -51.6113 C 90.1855 -51.6113 91.1621 -50.6348 91.0645 -49.1699 L 89.3066 -8.10547 C 89.209 -6.73828 88.3301 -5.76172 86.9629 -5.76172 Z"/>
  </g>
  <g id="Regular-L" transform="matrix(1 0 0 1 1374.97 1556)">
   <path d="M 74.8535 28.3691 C 109.668 28.3691 138.477 -0.390625 138.477 -35.2051 C 138.477 -70.0195 109.619 -98.7793 74.8047 -98.7793 C 40.0391 -98.7793 11.2793 -70.0195 11.2793 -35.2051 C 11.2793 -0.390625 40.0879 28.3691 74.8535 28.3691 Z M 74.8535 19.2871 C 44.6777 19.2871 20.4102 -5.0293 20.4102 -35.2051 C 20.4102 -65.3809 44.6289 -89.6973 74.8047 -89.6973 C 105.029 -89.6973 129.297 -65.3809 129.346 -35.2051 C 129.395 -5.0293 105.078 19.2871 74.8535 19.2871 Z M 59.4238 2.05078 L 90.4297 2.05078 C 94.6777 2.05078 97.4121 -0.488281 97.6074 -4.73633 L 100.049 -56.7871 L 104.248 -56.7871 C 105.762 -56.7871 107.031 -58.0566 107.031 -59.6191 C 107.031 -61.1328 105.762 -62.4023 104.248 -62.4023 L 89.3555 -62.4023 L 89.3555 -67.7246 C 89.3555 -72.4121 86.1816 -75.4395 81.4941 -75.4395 L 68.2617 -75.4395 C 63.623 -75.4395 60.4492 -72.4121 60.4492 -67.7246 L 60.4492 -62.4023 L 45.4102 -62.4023 C 43.8965 -62.4023 42.627 -61.1328 42.627 -59.6191 C 42.627 -58.0566 43.8965 -56.7871 45.4102 -56.7871 L 49.8535 -56.7871 L 52.2461 -4.73633 C 52.4902 -0.488281 55.127 2.05078 59.4238 2.05078 Z M 66.0156 -62.4023 L 66.0156 -66.748 C 66.0156 -68.6035 67.334 -69.7754 69.2383 -69.7754 L 80.2734 -69.7754 C 82.2266 -69.7754 83.5449 -68.6035 83.5449 -66.748 L 83.5449 -62.4023 Z M 63.2812 -5.0293 C 61.9629 -5.0293 61.084 -6.00586 61.0352 -7.32422 L 59.0332 -49.9023 C 58.9844 -51.2695 59.9609 -52.2461 61.4258 -52.2461 C 62.793 -52.2461 63.7207 -51.3672 63.7695 -49.9512 L 65.5273 -7.42188 C 65.5762 -6.00586 64.7461 -5.0293 63.2812 -5.0293 Z M 74.8535 -5.12695 C 73.4375 -5.12695 72.4121 -6.05469 72.4121 -7.42188 L 72.4121 -49.9512 C 72.4121 -51.3184 73.3398 -52.2461 74.8535 -52.2461 C 76.3184 -52.2461 77.2461 -51.3184 77.2461 -49.9512 L 77.2461 -7.42188 C 77.2461 -6.05469 76.2207 -5.12695 74.8535 -5.12695 Z M 86.377 -5.0293 C 84.9121 -5.0293 84.082 -6.00586 84.1309 -7.42188 L 85.8887 -49.9512 C 85.9863 -51.3672 86.8652 -52.2461 88.2324 -52.2461 C 89.6973 -52.2461 90.7227 -51.2695 90.625 -49.9023 L 88.6719 -7.32422 C 88.5742 -6.00586 87.6953 -5.0293 86.377 -5.0293 Z"/>
  </g>
  <g id="Light-L" transform="matrix(1 0 0 1 1079.18 1556)">
   <path d="M 73.9258 27.4902 C 108.301 27.4902 136.621 -0.830078 136.621 -35.1562 C 136.621 -69.5312 108.252 -97.8516 73.9258 -97.8516 C 39.5508 -97.8516 11.2793 -69.5312 11.2793 -35.1562 C 11.2793 -0.830078 39.5996 27.4902 73.9258 27.4902 Z M 73.9258 20.6055 C 43.1152 20.6055 18.2129 -4.3457 18.2129 -35.1562 C 18.2129 -66.0156 43.0664 -90.918 73.9258 -90.918 C 104.736 -90.918 129.688 -66.0156 129.736 -35.1562 C 129.736 -4.3457 104.785 20.6055 73.9258 20.6055 Z M 58.5938 1.70898 L 89.7461 1.70898 C 93.75 1.70898 96.582 -0.927734 96.7773 -4.93164 L 99.4141 -57.8125 L 104.297 -57.8125 C 105.615 -57.8125 106.641 -58.8867 106.641 -60.1562 C 106.641 -61.4258 105.615 -62.5 104.297 -62.5 L 88.5742 -62.5 L 88.5742 -68.1152 C 88.5742 -72.5098 85.4004 -75.4883 80.8105 -75.4883 L 67.3828 -75.4883 C 62.8418 -75.4883 59.7168 -72.5098 59.7168 -68.1152 L 59.7168 -62.5 L 43.6523 -62.5 C 42.3828 -62.5 41.3086 -61.4258 41.3086 -60.1562 C 41.3086 -58.8867 42.3828 -57.8125 43.6523 -57.8125 L 48.9746 -57.8125 L 51.5137 -4.93164 C 51.709 -0.927734 54.4922 1.70898 58.5938 1.70898 Z M 64.3066 -62.5 L 64.3066 -67.3828 C 64.3066 -69.4336 65.7715 -70.752 67.9199 -70.752 L 79.8828 -70.752 C 82.0801 -70.752 83.5938 -69.4336 83.5938 -67.3828 L 83.5938 -62.5 Z M 62.4512 -5.56641 C 61.2793 -5.56641 60.5469 -6.39648 60.4492 -7.61719 L 58.1055 -50.5859 C 58.0078 -51.8066 58.9355 -52.6855 60.2539 -52.6855 C 61.5234 -52.6855 62.3535 -51.9043 62.4512 -50.6836 L 64.502 -7.76367 C 64.5508 -6.44531 63.8184 -5.56641 62.4512 -5.56641 Z M 73.9746 -5.66406 C 72.7539 -5.66406 71.8262 -6.49414 71.8262 -7.76367 L 71.8262 -50.6348 C 71.8262 -51.8555 72.6562 -52.6855 73.9746 -52.6855 C 75.3418 -52.6855 76.1719 -51.8555 76.1719 -50.6348 L 76.1719 -7.76367 C 76.1719 -6.49414 75.2441 -5.66406 73.9746 -5.66406 Z M 85.498 -5.56641 C 84.1309 -5.56641 83.3984 -6.44531 83.4961 -7.76367 L 85.5469 -50.6836 C 85.5957 -51.9043 86.4746 -52.6855 87.6953 -52.6855 C 89.0137 -52.6855 89.9414 -51.8066 89.8926 -50.5859 L 87.5 -7.61719 C 87.4023 -6.39648 86.6699 -5.56641 85.498 -5.56641 Z"/>
  </g>
  <g id="Thin-L" transform="matrix(1 0 0 1 783.693 1556)">
   <path d="M 72.7051 26.3184 C 106.494 26.3184 134.18 -1.36719 134.18 -35.1074 C 134.18 -68.8965 106.494 -96.582 72.7051 -96.582 C 38.9648 -96.582 11.2793 -68.8965 11.2793 -35.1074 C 11.2793 -1.36719 38.9648 26.3184 72.7051 26.3184 Z M 72.7051 22.3145 C 41.0156 22.3145 15.2832 -3.41797 15.2832 -35.1074 C 15.2832 -66.8457 41.0156 -92.5781 72.7051 -92.5781 C 104.395 -92.5781 130.176 -66.8457 130.176 -35.1074 C 130.176 -3.41797 104.443 22.3145 72.7051 22.3145 Z M 57.4219 1.26953 L 88.8184 1.26953 C 92.5293 1.26953 95.5078 -1.51367 95.7031 -5.12695 L 98.5352 -59.1797 L 104.395 -59.1797 C 105.371 -59.1797 106.152 -59.9121 106.152 -60.8887 C 106.152 -61.7676 105.371 -62.5977 104.395 -62.5977 L 87.5 -62.5977 L 87.5 -68.6035 C 87.5 -72.5586 84.4238 -75.5371 79.8828 -75.5371 L 66.2598 -75.5371 C 61.7676 -75.5371 58.7402 -72.5586 58.7402 -68.6035 L 58.7402 -62.5977 L 41.3086 -62.5977 C 40.3809 -62.5977 39.5508 -61.7676 39.5508 -60.8887 C 39.5508 -59.9121 40.3809 -59.1797 41.3086 -59.1797 L 47.8027 -59.1797 L 50.5371 -5.12695 C 50.7324 -1.51367 53.6621 1.26953 57.4219 1.26953 Z M 62.0117 -62.5977 L 62.0117 -68.2617 C 62.0117 -70.5078 63.7207 -72.0215 66.1621 -72.0215 L 79.3945 -72.0215 C 81.9336 -72.0215 83.6426 -70.5078 83.6426 -68.2617 L 83.6426 -62.5977 Z M 61.4258 -6.29883 C 60.4004 -6.29883 59.8145 -6.98242 59.7168 -8.00781 L 56.8359 -51.4648 C 56.7383 -52.5391 57.5684 -53.2715 58.7402 -53.2715 C 59.8145 -53.2715 60.5469 -52.6855 60.6445 -51.6113 L 63.1348 -8.20312 C 63.1836 -7.03125 62.5977 -6.29883 61.4258 -6.29883 Z M 72.8516 -6.44531 C 71.8262 -6.44531 70.9961 -7.12891 70.9961 -8.20312 L 70.9961 -51.5137 C 70.9961 -52.5879 71.6797 -53.2715 72.8516 -53.2715 C 74.0234 -53.2715 74.707 -52.5879 74.707 -51.5137 L 74.707 -8.20312 C 74.707 -7.12891 73.877 -6.44531 72.8516 -6.44531 Z M 84.2773 -6.29883 C 83.1055 -6.29883 82.5195 -7.03125 82.6172 -8.20312 L 85.0586 -51.6113 C 85.1562 -52.6855 85.8887 -53.2715 86.9629 -53.2715 C 88.1348 -53.2715 88.9648 -52.5391 88.916 -51.4648 L 85.9863 -8.00781 C 85.8887 -6.98242 85.3027 -6.29883 84.2773 -6.29883 Z"/>
  </g>
  <g id="Ultralight-L" transform="matrix(1 0 0 1 487.616 1556)">
   <path d="M 72.1191 25.7324 C 105.566 25.7324 132.91 -1.61133 132.91 -35.1074 C 132.91 -68.5547 105.566 -95.8984 72.1191 -95.8984 C 38.623 -95.8984 11.2793 -68.5547 11.2793 -35.1074 C 11.2793 -1.61133 38.623 25.7324 72.1191 25.7324 Z M 72.1191 23.2422 C 39.9414 23.2422 13.7695 -2.97852 13.7695 -35.1074 C 13.7695 -67.2363 39.9414 -93.4082 72.1191 -93.4082 C 104.248 -93.4082 130.42 -67.2363 130.42 -35.1074 C 130.42 -2.97852 104.248 23.2422 72.1191 23.2422 Z M 56.8359 1.07422 L 88.3301 1.07422 C 91.8945 1.07422 94.9707 -1.80664 95.1172 -5.22461 L 98.0957 -59.9121 L 104.443 -59.9121 C 105.225 -59.9121 105.908 -60.4492 105.908 -61.2793 C 105.908 -61.9629 105.225 -62.6465 104.443 -62.6465 L 86.9141 -62.6465 L 86.9141 -68.8477 C 86.9141 -72.6074 83.8867 -75.5859 79.3945 -75.5859 L 65.6738 -75.5859 C 61.1816 -75.5859 58.252 -72.6074 58.252 -68.8477 L 58.252 -62.6465 L 40.1367 -62.6465 C 39.3555 -62.6465 38.6719 -61.9629 38.6719 -61.2793 C 38.6719 -60.4492 39.3555 -59.9121 40.1367 -59.9121 L 47.168 -59.9121 L 50.0488 -5.22461 C 50.1953 -1.80664 53.2227 1.07422 56.8359 1.07422 Z M 60.791 -62.6465 L 60.791 -68.7012 C 60.791 -71.0938 62.6465 -72.6562 65.2832 -72.6562 L 79.1016 -72.6562 C 81.8359 -72.6562 83.6914 -71.0938 83.6914 -68.7012 L 83.6914 -62.6465 Z M 60.8887 -6.64062 C 59.9609 -6.64062 59.4238 -7.27539 59.3262 -8.1543 L 56.1523 -51.9043 C 56.1035 -52.8809 56.8848 -53.6133 57.959 -53.6133 C 58.9355 -53.6133 59.668 -53.0762 59.7168 -52.0508 L 62.4023 -8.44727 C 62.5 -7.32422 61.9629 -6.64062 60.8887 -6.64062 Z M 72.2656 -6.83594 C 71.3867 -6.83594 70.6055 -7.42188 70.6055 -8.44727 L 70.6055 -52.002 C 70.6055 -52.9785 71.1914 -53.6133 72.2656 -53.6133 C 73.3887 -53.6133 73.9746 -52.9785 73.9746 -52.002 L 73.9746 -8.44727 C 73.9746 -7.42188 73.1934 -6.83594 72.2656 -6.83594 Z M 83.6914 -6.64062 C 82.6172 -6.64062 82.0801 -7.32422 82.1289 -8.44727 L 84.8145 -52.0508 C 84.9121 -53.0762 85.5957 -53.6133 86.6211 -53.6133 C 87.6953 -53.6133 88.4766 -52.8809 88.3789 -51.9043 L 85.2051 -8.1543 C 85.1562 -7.27539 84.6191 -6.64062 83.6914 -6.64062 Z"/>
  </g>
  <g id="Black-M" transform="matrix(1 0 0 1 2870.97 1126)">
   <path d="M 62.4023 18.457 C 91.9922 18.457 116.113 -5.61523 116.113 -35.2051 C 116.113 -64.7949 91.9922 -88.8672 62.4023 -88.8672 C 32.8125 -88.8672 8.74023 -64.7949 8.74023 -35.2051 C 8.74023 -5.61523 32.8125 18.457 62.4023 18.457 Z M 62.4023 0.195312 C 42.8711 0.195312 27.002 -15.625 27.002 -35.2051 C 27.002 -54.7363 42.8711 -70.6055 62.4023 -70.6055 C 81.9824 -70.6055 97.8027 -54.7363 97.8027 -35.2051 C 97.8027 -15.625 81.9824 0.195312 62.4023 0.195312 Z M 53.0273 -9.22852 L 71.7773 -9.22852 C 76.4648 -9.22852 78.9551 -11.4746 79.248 -16.1133 L 80.7617 -47.4121 L 82.9102 -47.4121 C 85.1074 -47.4121 86.5723 -48.8281 86.5723 -50.9766 C 86.5723 -53.0273 85.1074 -54.3945 82.9102 -54.3945 L 74.5117 -54.3945 L 74.5117 -56.0547 C 74.5117 -60.7422 71.3867 -63.5742 65.625 -63.5742 L 59.1797 -63.5742 C 53.418 -63.5742 50.2441 -60.7422 50.2441 -56.0547 L 50.2441 -54.3945 L 41.8945 -54.3945 C 39.7461 -54.3945 38.2324 -53.0273 38.1836 -50.9766 C 38.1348 -48.8281 39.7461 -47.4121 41.8945 -47.4121 L 44.043 -47.4121 L 45.5566 -16.1133 C 45.8008 -11.4746 48.3887 -9.22852 53.0273 -9.22852 Z M 56.9336 -54.3945 L 56.9824 -56.25 C 57.0801 -57.3242 57.959 -58.0566 59.082 -58.0566 L 65.7227 -58.0566 C 66.8945 -58.0566 67.7246 -57.3242 67.7734 -56.25 L 67.8223 -54.3945 Z M 54.7852 -16.5039 C 53.6133 -16.5039 52.832 -17.2363 52.7832 -18.4082 L 52.0996 -42.5293 C 52.0508 -43.8477 52.7832 -44.7266 54.0527 -44.7266 C 55.2246 -44.7266 56.0547 -43.8965 56.1035 -42.6758 L 56.7871 -18.5059 C 56.8359 -17.334 55.957 -16.5039 54.7852 -16.5039 Z M 62.4023 -16.5039 C 61.1816 -16.5039 60.3516 -17.2363 60.3516 -18.4082 L 60.3516 -42.7734 C 60.3516 -43.9941 61.1816 -44.7266 62.4023 -44.7266 C 63.623 -44.7266 64.4043 -43.9941 64.4043 -42.7734 L 64.4043 -18.4082 C 64.4043 -17.2363 63.623 -16.5039 62.4023 -16.5039 Z M 69.9707 -16.5039 C 68.7988 -16.5039 67.9199 -17.334 68.0176 -18.5059 L 68.6523 -42.6758 C 68.75 -43.8965 69.5312 -44.7266 70.752 -44.7266 C 71.9727 -44.7266 72.7051 -43.8477 72.6562 -42.5293 L 71.9727 -18.4082 C 71.9238 -17.2363 71.1914 -16.5039 69.9707 -16.5039 Z"/>
  </g>
  <g id="Heavy-M" transform="matrix(1 0 0 1 2575.19 1126)">
   <path d="M 61.5234 17.5781 C 90.5273 17.5781 114.258 -6.15234 114.258 -35.2051 C 114.258 -64.2578 90.5273 -87.9883 61.4746 -87.9883 C 32.4707 -87.9883 8.74023 -64.2578 8.74023 -35.2051 C 8.74023 -6.15234 32.4707 17.5781 61.5234 17.5781 Z M 61.5234 1.66016 C 41.1133 1.66016 24.6582 -14.8438 24.6582 -35.2051 C 24.6582 -55.5664 41.1133 -72.0703 61.4746 -72.0703 C 81.8848 -72.0703 98.3398 -55.5664 98.3398 -35.2051 C 98.3398 -14.8438 81.8848 1.66016 61.5234 1.66016 Z M 51.4648 -8.49609 L 71.4844 -8.49609 C 75.8789 -8.49609 78.2715 -10.6445 78.5156 -15.0391 L 80.127 -48.3398 L 82.373 -48.3398 C 84.375 -48.3398 85.791 -49.707 85.791 -51.6602 C 85.791 -53.5156 84.375 -54.834 82.373 -54.834 L 73.3887 -54.834 L 73.3887 -57.0312 C 73.3887 -61.5234 70.4102 -64.209 65.1367 -64.209 L 57.8125 -64.209 C 52.5879 -64.209 49.5605 -61.5234 49.5605 -57.0312 L 49.5605 -54.834 L 40.5273 -54.834 C 38.5742 -54.834 37.207 -53.5156 37.1582 -51.6602 C 37.1094 -49.707 38.5742 -48.3398 40.5273 -48.3398 L 42.8711 -48.3398 L 44.4336 -15.0391 C 44.6777 -10.6445 47.1191 -8.49609 51.4648 -8.49609 Z M 55.8105 -54.834 L 55.8594 -56.9824 C 55.9082 -58.1055 56.7871 -58.8867 57.959 -58.8867 L 64.9414 -58.8867 C 66.1621 -58.8867 66.9922 -58.1055 67.041 -56.9824 L 67.0898 -54.834 Z M 53.5156 -15.332 C 52.3926 -15.332 51.6113 -16.0645 51.5625 -17.2363 L 50.7324 -43.4082 C 50.6836 -44.6777 51.4648 -45.5566 52.6855 -45.5566 C 53.8574 -45.5566 54.6387 -44.7266 54.6875 -43.5059 L 55.5176 -17.334 C 55.5664 -16.1621 54.7363 -15.332 53.5156 -15.332 Z M 61.4746 -15.332 C 60.2539 -15.332 59.4238 -16.1133 59.4238 -17.2852 L 59.4238 -43.6035 C 59.4238 -44.7754 60.2539 -45.5566 61.4746 -45.5566 C 62.6953 -45.5566 63.4766 -44.7754 63.4766 -43.6035 L 63.4766 -17.2852 C 63.4766 -16.1133 62.6465 -15.332 61.4746 -15.332 Z M 69.3848 -15.332 C 68.2129 -15.332 67.3828 -16.1621 67.4316 -17.334 L 68.2129 -43.5059 C 68.2617 -44.7266 69.0918 -45.5566 70.2637 -45.5566 C 71.4844 -45.5566 72.2656 -44.6777 72.168 -43.4082 L 71.3379 -17.2363 C 71.2891 -16.0645 70.5566 -15.332 69.3848 -15.332 Z"/>
  </g>
  <g id="Bold-M" transform="matrix(1 0 0 1 2279.5 1126)">
   <path d="M 60.498 16.5039 C 88.8672 16.5039 112.207 -6.78711 112.207 -35.2051 C 112.207 -63.623 88.8672 -86.9629 60.4492 -86.9629 C 32.0312 -86.9629 8.74023 -63.623 8.74023 -35.2051 C 8.74023 -6.78711 32.0801 16.5039 60.498 16.5039 Z M 60.498 3.22266 C 39.1602 3.22266 22.0703 -13.916 22.0703 -35.2051 C 22.0703 -56.4941 39.1602 -73.6816 60.4492 -73.6816 C 81.7383 -73.6816 98.9258 -56.4941 98.9258 -35.2051 C 98.9746 -13.916 81.7871 3.22266 60.498 3.22266 Z M 49.8047 -7.66602 L 71.1426 -7.66602 C 75.1953 -7.66602 77.4414 -9.76562 77.6855 -13.8184 L 79.3457 -49.3652 L 81.8359 -49.3652 C 83.5938 -49.3652 84.9121 -50.6836 84.9121 -52.3926 C 84.9121 -54.1016 83.5938 -55.3223 81.8359 -55.3223 L 72.1191 -55.3223 L 72.1191 -58.1055 C 72.1191 -62.4023 69.2871 -64.9902 64.5996 -64.9902 L 56.25 -64.9902 C 51.6113 -64.9902 48.7793 -62.4023 48.7793 -58.1055 L 48.7793 -55.3223 L 39.0137 -55.3223 C 37.3047 -55.3223 35.9863 -54.1016 35.9863 -52.3926 C 35.9375 -50.6836 37.3047 -49.3652 39.0137 -49.3652 L 41.6016 -49.3652 L 43.2129 -13.8184 C 43.457 -9.76562 45.752 -7.66602 49.8047 -7.66602 Z M 54.541 -55.3223 L 54.5898 -57.7637 C 54.5898 -58.9844 55.5176 -59.7656 56.7383 -59.7656 L 64.0625 -59.7656 C 65.332 -59.7656 66.2109 -58.9844 66.2598 -57.7637 L 66.3086 -55.3223 Z M 52.1484 -14.0137 C 50.9766 -14.0137 50.2441 -14.7949 50.1953 -15.9668 L 49.2188 -44.3848 C 49.1699 -45.6055 49.9512 -46.4355 51.1719 -46.4355 C 52.2949 -46.4355 53.0762 -45.6543 53.125 -44.4336 L 54.0527 -16.0156 C 54.1504 -14.8438 53.3203 -14.0137 52.1484 -14.0137 Z M 60.4492 -14.0137 C 59.2285 -14.0137 58.3984 -14.7949 58.3984 -15.9668 L 58.3984 -44.5312 C 58.3984 -45.7031 59.2285 -46.4355 60.4492 -46.4355 C 61.6211 -46.4355 62.4512 -45.7031 62.4512 -44.5312 L 62.4512 -15.9668 C 62.4512 -14.7949 61.6211 -14.0137 60.4492 -14.0137 Z M 68.75 -14.0137 C 67.5293 -14.0137 66.748 -14.8438 66.7969 -16.0156 L 67.7246 -44.4336 C 67.7734 -45.6543 68.5547 -46.4355 69.7266 -46.4355 C 70.9473 -46.4355 71.7285 -45.6055 71.6309 -44.3848 L 70.6543 -15.9668 C 70.6055 -14.7949 69.873 -14.0137 68.75 -14.0137 Z"/>
  </g>
  <g id="Semibold-M" transform="matrix(1 0 0 1 1983.5 1126)">
   <path d="M 59.7656 15.8203 C 87.7441 15.8203 110.791 -7.22656 110.791 -35.2051 C 110.791 -63.1836 87.6953 -86.2793 59.7656 -86.2793 C 31.7871 -86.2793 8.74023 -63.1836 8.74023 -35.2051 C 8.74023 -7.22656 31.7871 15.8203 59.7656 15.8203 Z M 59.7656 4.3457 C 37.8418 4.3457 20.2637 -13.2812 20.2637 -35.2051 C 20.2637 -57.1289 37.793 -74.8047 59.7656 -74.8047 C 81.6895 -74.8047 99.3164 -57.1289 99.3652 -35.2051 C 99.3652 -13.2812 81.6895 4.3457 59.7656 4.3457 Z M 48.6328 -7.12891 L 70.8984 -7.12891 C 74.7559 -7.12891 76.9043 -9.13086 77.0996 -12.9883 L 78.8574 -50.0977 L 81.4453 -50.0977 C 83.0566 -50.0977 84.2773 -51.3184 84.2773 -52.8809 C 84.2773 -54.4922 83.0566 -55.6641 81.4453 -55.6641 L 71.2402 -55.6641 L 71.2402 -58.8867 C 71.2402 -62.9883 68.5547 -65.4785 64.209 -65.4785 L 55.2246 -65.4785 C 50.9277 -65.4785 48.2422 -62.9883 48.2422 -58.8867 L 48.2422 -55.6641 L 37.9883 -55.6641 C 36.4258 -55.6641 35.2051 -54.4922 35.1562 -52.8809 C 35.1562 -51.3184 36.4258 -50.0977 37.9883 -50.0977 L 40.6738 -50.0977 L 42.3828 -12.9883 C 42.5781 -9.13086 44.7754 -7.12891 48.6328 -7.12891 Z M 53.6621 -55.6641 L 53.7109 -58.3496 C 53.7109 -59.5703 54.6387 -60.4004 55.8594 -60.4004 L 63.4766 -60.4004 C 64.7949 -60.4004 65.6738 -59.5703 65.7227 -58.3496 L 65.7227 -55.6641 Z M 51.1719 -13.1348 C 50.0488 -13.1348 49.3164 -13.8672 49.2676 -15.0391 L 48.1445 -45.0684 C 48.0957 -46.2402 48.877 -47.0703 50.0977 -47.0703 C 51.2207 -47.0703 52.002 -46.2891 52.0508 -45.1172 L 53.0762 -15.0879 C 53.125 -13.916 52.3926 -13.1348 51.1719 -13.1348 Z M 59.7168 -13.1348 C 58.5449 -13.1348 57.7148 -13.916 57.7148 -15.0879 L 57.7148 -45.1172 C 57.7148 -46.2891 58.4961 -47.0703 59.7168 -47.0703 C 60.9375 -47.0703 61.7188 -46.2891 61.7188 -45.1172 L 61.7188 -15.0879 C 61.7188 -13.916 60.9375 -13.1348 59.7168 -13.1348 Z M 68.2617 -13.1348 C 67.0898 -13.1348 66.3086 -13.916 66.3574 -15.0879 L 67.3828 -45.1172 C 67.4316 -46.2891 68.2129 -47.0703 69.3359 -47.0703 C 70.5566 -47.0703 71.3379 -46.2402 71.2891 -45.0684 L 70.166 -15.0391 C 70.1172 -13.8672 69.3848 -13.1348 68.2617 -13.1348 Z"/>
  </g>
  <g id="Medium-M" transform="matrix(1 0 0 1 1687.3 1126)">
   <path d="M 59.2285 15.2832 C 86.9141 15.2832 109.766 -7.56836 109.766 -35.2051 C 109.766 -62.8906 86.8652 -85.7422 59.1797 -85.7422 C 31.543 -85.7422 8.74023 -62.8906 8.74023 -35.2051 C 8.74023 -7.56836 31.5918 15.2832 59.2285 15.2832 Z M 59.2285 5.17578 C 36.8164 5.17578 18.8965 -12.8418 18.8965 -35.2051 C 18.8965 -57.6172 36.8164 -75.6348 59.1797 -75.6348 C 81.5918 -75.6348 99.6094 -57.6172 99.6582 -35.2051 C 99.707 -12.8418 81.6406 5.17578 59.2285 5.17578 Z M 47.7051 -6.68945 L 70.7031 -6.68945 C 74.3652 -6.68945 76.5137 -8.64258 76.709 -12.3535 L 78.4668 -50.6348 L 81.1523 -50.6348 C 82.6172 -50.6348 83.7891 -51.8066 83.7891 -53.2715 C 83.7891 -54.7852 82.6172 -55.9082 81.1523 -55.9082 L 70.6055 -55.9082 L 70.6055 -59.4727 C 70.6055 -63.4277 67.9688 -65.8691 63.916 -65.8691 L 54.3945 -65.8691 C 50.4395 -65.8691 47.8027 -63.4277 47.8027 -59.4727 L 47.8027 -55.9082 L 37.207 -55.9082 C 35.7422 -55.9082 34.5703 -54.7852 34.5703 -53.2715 C 34.5703 -51.8066 35.7422 -50.6348 37.207 -50.6348 L 40.0391 -50.6348 L 41.748 -12.3535 C 41.9434 -8.64258 44.043 -6.68945 47.7051 -6.68945 Z M 53.0273 -55.9082 L 53.0273 -58.7402 C 53.0273 -60.0098 53.9551 -60.8398 55.2246 -60.8398 L 63.0371 -60.8398 C 64.3555 -60.8398 65.2832 -60.0098 65.2832 -58.7402 L 65.2832 -55.9082 Z M 50.4395 -12.4512 C 49.3164 -12.4512 48.584 -13.2324 48.5352 -14.3555 L 47.3633 -45.5566 C 47.2656 -46.7285 48.0957 -47.5586 49.3164 -47.5586 C 50.4395 -47.5586 51.1719 -46.7773 51.2695 -45.6055 L 52.3438 -14.4043 C 52.3926 -13.2324 51.6602 -12.4512 50.4395 -12.4512 Z M 59.1797 -12.4512 C 58.0078 -12.4512 57.1777 -13.2324 57.1777 -14.4043 L 57.1777 -45.6055 C 57.1777 -46.7773 57.959 -47.5586 59.1797 -47.5586 C 60.4004 -47.5586 61.1816 -46.7773 61.1816 -45.6055 L 61.1816 -14.4043 C 61.1816 -13.2324 60.3516 -12.4512 59.1797 -12.4512 Z M 67.9199 -12.4512 C 66.6992 -12.4512 65.9668 -13.2324 66.0156 -14.4043 L 67.0898 -45.6055 C 67.1875 -46.7773 67.9199 -47.5586 69.043 -47.5586 C 70.2637 -47.5586 71.0938 -46.7285 70.9961 -45.5566 L 69.8242 -14.3555 C 69.7754 -13.2324 69.043 -12.4512 67.9199 -12.4512 Z"/>
  </g>
  <g id="Regular-M" transform="matrix(1 0 0 1 1391.3 1126)">
   <path d="M 58.5449 14.5508 C 85.791 14.5508 108.35 -8.00781 108.35 -35.2539 C 108.35 -62.4512 85.7422 -85.0586 58.4961 -85.0586 C 31.2988 -85.0586 8.74023 -62.4512 8.74023 -35.2539 C 8.74023 -8.00781 31.3477 14.5508 58.5449 14.5508 Z M 58.5449 6.25 C 35.498 6.25 17.0898 -12.207 17.0898 -35.2539 C 17.0898 -58.252 35.4492 -76.7578 58.4961 -76.7578 C 81.543 -76.7578 100 -58.252 100.049 -35.2539 C 100.098 -12.207 81.5918 6.25 58.5449 6.25 Z M 46.582 -6.15234 L 70.5078 -6.15234 C 73.9258 -6.15234 75.9766 -8.05664 76.123 -11.5234 L 77.9297 -51.3672 L 80.7617 -51.3672 C 82.0801 -51.3672 83.2031 -52.4902 83.2031 -53.8086 C 83.2031 -55.1758 82.0801 -56.25 80.7617 -56.25 L 69.7266 -56.25 L 69.7266 -60.2051 C 69.7266 -64.0137 67.1875 -66.4062 63.5742 -66.4062 L 53.3691 -66.4062 C 49.7559 -66.4062 47.2656 -64.0137 47.2656 -60.2051 L 47.2656 -56.25 L 36.1816 -56.25 C 34.8633 -56.25 33.7891 -55.1758 33.7891 -53.8086 C 33.7891 -52.4902 34.8633 -51.3672 36.1816 -51.3672 L 39.1113 -51.3672 L 40.918 -11.5234 C 41.1133 -8.05664 43.1152 -6.15234 46.582 -6.15234 Z M 52.1484 -56.25 L 52.1484 -59.2773 C 52.1484 -60.5957 53.0762 -61.4746 54.3945 -61.4746 L 62.4512 -61.4746 C 63.8184 -61.4746 64.7461 -60.5957 64.7461 -59.2773 L 64.7461 -56.25 Z M 49.4629 -11.5234 C 48.3887 -11.5234 47.6562 -12.3047 47.6074 -13.4766 L 46.2891 -46.2402 C 46.2402 -47.3633 47.0703 -48.1934 48.291 -48.1934 C 49.3652 -48.1934 50.1465 -47.4121 50.1953 -46.2402 L 51.3672 -13.5254 C 51.416 -12.3535 50.6836 -11.5234 49.4629 -11.5234 Z M 58.4961 -11.5723 C 57.2754 -11.5723 56.4941 -12.3535 56.4941 -13.5254 L 56.4941 -46.2402 C 56.4941 -47.3633 57.2754 -48.1934 58.4961 -48.1934 C 59.668 -48.1934 60.498 -47.3633 60.498 -46.2402 L 60.498 -13.5254 C 60.498 -12.3535 59.668 -11.5723 58.4961 -11.5723 Z M 67.4805 -11.5234 C 66.2598 -11.5234 65.5273 -12.3535 65.5762 -13.5254 L 66.748 -46.2402 C 66.7969 -47.4121 67.5781 -48.1934 68.7012 -48.1934 C 69.873 -48.1934 70.7031 -47.3633 70.6543 -46.2402 L 69.3359 -13.4766 C 69.2871 -12.3047 68.5547 -11.5234 67.4805 -11.5234 Z"/>
  </g>
  <g id="Light-M" transform="matrix(1 0 0 1 1095.42 1126)">
   <path d="M 57.7148 13.7695 C 84.5215 13.7695 106.689 -8.39844 106.689 -35.2051 C 106.689 -62.0117 84.5215 -84.1797 57.666 -84.1797 C 30.8594 -84.1797 8.74023 -62.0117 8.74023 -35.2051 C 8.74023 -8.39844 30.9082 13.7695 57.7148 13.7695 Z M 57.7148 7.4707 C 34.082 7.4707 15.0879 -11.5723 15.0879 -35.2051 C 15.0879 -58.8379 34.082 -77.832 57.666 -77.832 C 81.2988 -77.832 100.342 -58.8379 100.391 -35.2051 C 100.391 -11.5723 81.3477 7.4707 57.7148 7.4707 Z M 45.8008 -6.44531 L 69.873 -6.44531 C 73.0957 -6.44531 75.2441 -8.44727 75.3906 -11.6699 L 77.3438 -52.2949 L 80.8105 -52.2949 C 81.9336 -52.2949 82.8125 -53.1738 82.8125 -54.2969 C 82.8125 -55.4199 81.9336 -56.2988 80.8105 -56.2988 L 68.9941 -56.2988 L 68.9941 -60.5469 C 68.9941 -64.0625 66.5039 -66.4062 62.9395 -66.4062 L 52.5879 -66.4062 C 49.0723 -66.4062 46.6309 -64.0625 46.6309 -60.5469 L 46.6309 -56.2988 L 34.6191 -56.2988 C 33.4961 -56.2988 32.5684 -55.4199 32.5684 -54.2969 C 32.5684 -53.1738 33.4961 -52.2949 34.6191 -52.2949 L 38.3301 -52.2949 L 40.2344 -11.6699 C 40.4297 -8.44727 42.5293 -6.44531 45.8008 -6.44531 Z M 50.5859 -56.2988 L 50.5859 -59.8633 C 50.5859 -61.377 51.6602 -62.3047 53.2227 -62.3047 L 62.0605 -62.3047 C 63.6719 -62.3047 64.7461 -61.377 64.7461 -59.8633 L 64.7461 -56.2988 Z M 48.7793 -12.0117 C 47.8027 -12.0117 47.168 -12.6953 47.1191 -13.7207 L 45.459 -46.8262 C 45.3613 -47.8516 46.1426 -48.584 47.2168 -48.584 C 48.2422 -48.584 48.9258 -47.9004 48.9746 -46.875 L 50.4395 -13.8184 C 50.4883 -12.7441 49.8535 -12.0117 48.7793 -12.0117 Z M 57.7148 -12.0605 C 56.6895 -12.0605 55.9082 -12.7441 55.9082 -13.8184 L 55.9082 -46.8262 C 55.9082 -47.9004 56.5918 -48.584 57.7148 -48.584 C 58.7891 -48.584 59.5215 -47.9004 59.5215 -46.8262 L 59.5215 -13.8184 C 59.5215 -12.7441 58.7402 -12.0605 57.7148 -12.0605 Z M 66.6504 -12.0117 C 65.5762 -12.0117 64.9414 -12.7441 64.9902 -13.8184 L 66.4551 -46.875 C 66.5039 -47.9004 67.1875 -48.584 68.2129 -48.584 C 69.2871 -48.584 70.0684 -47.8516 69.9707 -46.8262 L 68.3105 -13.7207 C 68.2617 -12.6953 67.627 -12.0117 66.6504 -12.0117 Z"/>
  </g>
  <g id="Thin-M" transform="matrix(1 0 0 1 799.806 1126)">
   <path d="M 56.6406 12.7441 C 82.9102 12.7441 104.492 -8.83789 104.492 -35.1562 C 104.492 -61.4746 82.9102 -83.0566 56.5918 -83.0566 C 30.3223 -83.0566 8.74023 -61.4746 8.74023 -35.1562 C 8.74023 -8.83789 30.3223 12.7441 56.6406 12.7441 Z M 56.6406 8.98438 C 32.2266 8.98438 12.4512 -10.791 12.4512 -35.1562 C 12.4512 -59.5215 32.2266 -79.2969 56.5918 -79.2969 C 81.0059 -79.2969 100.781 -59.5215 100.781 -35.1562 C 100.781 -10.791 81.0059 8.98438 56.6406 8.98438 Z M 44.7266 -6.83594 L 69.043 -6.83594 C 71.9727 -6.83594 74.2676 -8.98438 74.4141 -11.8652 L 76.5625 -53.5156 L 80.8594 -53.5156 C 81.6895 -53.5156 82.373 -54.1504 82.373 -54.9805 C 82.373 -55.7129 81.6895 -56.3965 80.8594 -56.3965 L 68.0176 -56.3965 L 68.0176 -60.9863 C 68.0176 -64.1602 65.625 -66.4551 62.1094 -66.4551 L 51.6113 -66.4551 C 48.0957 -66.4551 45.752 -64.1602 45.752 -60.9863 L 45.752 -56.3965 L 32.5195 -56.3965 C 31.6895 -56.3965 31.0547 -55.7129 31.0547 -54.9805 C 31.0547 -54.1504 31.6895 -53.5156 32.5195 -53.5156 L 37.3047 -53.5156 L 39.4043 -11.8652 C 39.502 -8.98438 41.748 -6.83594 44.7266 -6.83594 Z M 48.5352 -56.3965 L 48.5352 -60.6445 C 48.5352 -62.3535 49.8047 -63.4766 51.6602 -63.4766 L 61.6211 -63.4766 C 63.5254 -63.4766 64.7949 -62.3535 64.7949 -60.6445 L 64.7949 -56.3965 Z M 47.8027 -12.6465 C 47.0215 -12.6465 46.4844 -13.2324 46.4355 -14.0625 L 44.2871 -47.6074 C 44.2383 -48.4863 44.9219 -49.1211 45.8496 -49.1211 C 46.7285 -49.1211 47.3145 -48.584 47.3633 -47.7051 L 49.2188 -14.209 C 49.2676 -13.2812 48.7793 -12.6465 47.8027 -12.6465 Z M 56.6895 -12.7441 C 55.8594 -12.7441 55.2246 -13.3301 55.2246 -14.209 L 55.2246 -47.6562 C 55.2246 -48.5352 55.7617 -49.1211 56.6895 -49.1211 C 57.666 -49.1211 58.2031 -48.5352 58.2031 -47.6562 L 58.2031 -14.209 C 58.2031 -13.3301 57.5684 -12.7441 56.6895 -12.7441 Z M 65.5762 -12.6465 C 64.6484 -12.6465 64.1602 -13.2812 64.209 -14.209 L 66.0156 -47.7051 C 66.0645 -48.584 66.6992 -49.1211 67.5781 -49.1211 C 68.5059 -49.1211 69.1895 -48.4863 69.0918 -47.6074 L 66.9434 -14.0625 C 66.8945 -13.2324 66.4062 -12.6465 65.5762 -12.6465 Z"/>
  </g>
  <g id="Ultralight-M" transform="matrix(1 0 0 1 503.656 1126)">
   <path d="M 56.0547 12.207 C 82.0801 12.207 103.369 -9.08203 103.369 -35.1562 C 103.369 -61.1816 82.0801 -82.4707 56.0547 -82.4707 C 30.0293 -82.4707 8.74023 -61.1816 8.74023 -35.1562 C 8.74023 -9.08203 30.0293 12.207 56.0547 12.207 Z M 56.0547 9.81445 C 31.2988 9.81445 11.1328 -10.3516 11.1328 -35.1562 C 11.1328 -59.9121 31.2988 -80.0781 56.0547 -80.0781 C 80.8594 -80.0781 100.977 -59.9121 100.977 -35.1562 C 100.977 -10.3516 80.8594 9.81445 56.0547 9.81445 Z M 44.2383 -7.03125 L 68.6035 -7.03125 C 71.3867 -7.03125 73.7793 -9.22852 73.877 -11.9629 L 76.123 -54.1504 L 80.9082 -54.1504 C 81.5918 -54.1504 82.1289 -54.6387 82.1289 -55.2734 C 82.1289 -55.9082 81.5918 -56.4453 80.9082 -56.4453 L 67.5293 -56.4453 L 67.5293 -61.1816 C 67.5293 -64.1602 65.1855 -66.5039 61.6699 -66.5039 L 51.0742 -66.5039 C 47.6074 -66.5039 45.2637 -64.1602 45.2637 -61.1816 L 45.2637 -56.4453 L 31.4453 -56.4453 C 30.8105 -56.4453 30.2246 -55.9082 30.2246 -55.2734 C 30.2246 -54.6387 30.8105 -54.1504 31.4453 -54.1504 L 36.7188 -54.1504 L 38.916 -11.9629 C 39.0625 -9.22852 41.3574 -7.03125 44.2383 -7.03125 Z M 47.4609 -56.4453 L 47.4609 -61.0352 C 47.4609 -62.8418 48.877 -64.0625 50.8789 -64.0625 L 61.377 -64.0625 C 63.4766 -64.0625 64.8438 -62.8418 64.8438 -61.0352 L 64.8438 -56.4453 Z M 47.3633 -12.9883 C 46.582 -12.9883 46.1914 -13.4766 46.0938 -14.209 L 43.7012 -47.998 C 43.6523 -48.8281 44.2871 -49.3652 45.166 -49.3652 C 45.9473 -49.3652 46.4844 -48.9258 46.582 -48.1445 L 48.584 -14.4043 C 48.6328 -13.5254 48.1934 -12.9883 47.3633 -12.9883 Z M 56.2012 -13.0859 C 55.4688 -13.0859 54.834 -13.5742 54.834 -14.4043 L 54.834 -48.0469 C 54.834 -48.877 55.3223 -49.3652 56.2012 -49.3652 C 57.0312 -49.3652 57.5684 -48.877 57.5684 -48.0469 L 57.5684 -14.4043 C 57.5684 -13.5742 56.9336 -13.0859 56.2012 -13.0859 Z M 65.0391 -12.9883 C 64.1602 -12.9883 63.7207 -13.5254 63.8184 -14.4043 L 65.8203 -48.1445 C 65.8691 -48.9258 66.4551 -49.3652 67.2363 -49.3652 C 68.1152 -49.3652 68.7012 -48.8281 68.6523 -47.998 L 66.2598 -14.209 C 66.2109 -13.4766 65.7715 -12.9883 65.0391 -12.9883 Z"/>
  </g>
  <g id="Black-S" transform="matrix(1 0 0 1 2884.57 696)">
   <path d="M 48.8281 6.78711 C 71.9727 6.78711 90.8203 -12.0605 90.8203 -35.2051 C 90.8203 -58.3496 71.9727 -77.1973 48.8281 -77.1973 C 25.6836 -77.1973 6.83594 -58.3496 6.83594 -35.2051 C 6.83594 -12.0605 25.6836 6.78711 48.8281 6.78711 Z M 48.8281 -7.37305 C 33.4473 -7.37305 20.9961 -19.8242 20.9961 -35.2051 C 20.9961 -50.5859 33.4473 -63.0371 48.8281 -63.0371 C 64.209 -63.0371 76.6602 -50.5859 76.6602 -35.2051 C 76.6602 -19.8242 64.209 -7.37305 48.8281 -7.37305 Z M 41.4062 -14.7949 L 56.2012 -14.7949 C 59.8633 -14.7949 61.8164 -16.5527 62.0117 -20.166 L 63.2324 -44.8242 L 64.8926 -44.8242 C 66.6016 -44.8242 67.7734 -45.9473 67.7734 -47.6074 C 67.7734 -49.2188 66.6016 -50.293 64.8926 -50.293 L 58.3008 -50.293 L 58.3008 -51.6113 C 58.3008 -55.2734 55.8594 -57.4707 51.3672 -57.4707 L 46.2402 -57.4707 C 41.7969 -57.4707 39.3066 -55.2734 39.3066 -51.6113 L 39.3066 -50.293 L 32.7148 -50.293 C 31.0547 -50.293 29.8828 -49.2188 29.834 -47.6074 C 29.7852 -45.9473 31.0547 -44.8242 32.7148 -44.8242 L 34.4238 -44.8242 L 35.5957 -20.166 C 35.791 -16.5527 37.793 -14.7949 41.4062 -14.7949 Z M 44.5312 -50.293 L 44.5801 -51.7578 C 44.6289 -52.5879 45.3125 -53.1738 46.1914 -53.1738 L 51.416 -53.1738 C 52.3438 -53.1738 52.9785 -52.5879 53.0273 -51.7578 L 53.0762 -50.293 Z M 42.8223 -20.459 C 41.8945 -20.459 41.3086 -21.0449 41.2598 -21.9727 L 40.7227 -41.0156 C 40.6738 -42.041 41.2598 -42.7246 42.2363 -42.7246 C 43.1641 -42.7246 43.7988 -42.0898 43.8477 -41.1133 L 44.3848 -22.0215 C 44.4336 -21.0938 43.75 -20.459 42.8223 -20.459 Z M 48.8281 -20.459 C 47.8516 -20.459 47.2168 -21.0449 47.2168 -21.9727 L 47.2168 -41.2109 C 47.2168 -42.1387 47.8516 -42.7246 48.8281 -42.7246 C 49.7559 -42.7246 50.3906 -42.1387 50.3906 -41.2109 L 50.3906 -21.9727 C 50.3906 -21.0449 49.7559 -20.459 48.8281 -20.459 Z M 54.7852 -20.459 C 53.8574 -20.459 53.1738 -21.0938 53.2227 -22.0215 L 53.7598 -41.1133 C 53.8086 -42.0898 54.4434 -42.7246 55.3711 -42.7246 C 56.3477 -42.7246 56.9336 -42.041 56.8848 -41.0156 L 56.3477 -21.9727 C 56.2988 -21.0449 55.7129 -20.459 54.7852 -20.459 Z"/>
  </g>
  <g id="Heavy-S" transform="matrix(1 0 0 1 2588.47 696)">
   <path d="M 48.2422 6.15234 C 70.9961 6.15234 89.5996 -12.4512 89.5996 -35.2051 C 89.5996 -57.959 70.9961 -76.6113 48.1934 -76.6113 C 25.4395 -76.6113 6.83594 -57.959 6.83594 -35.2051 C 6.83594 -12.4512 25.4395 6.15234 48.2422 6.15234 Z M 48.2422 -6.39648 C 32.2754 -6.39648 19.4336 -19.2871 19.4336 -35.2051 C 19.4336 -51.1719 32.2754 -64.0137 48.1934 -64.0137 C 64.1602 -64.0137 77.002 -51.1719 77.0508 -35.2051 C 77.0508 -19.2871 64.1602 -6.39648 48.2422 -6.39648 Z M 40.332 -14.209 L 56.0547 -14.209 C 59.5215 -14.209 61.3281 -15.8691 61.5234 -19.3359 L 62.793 -45.4102 L 64.502 -45.4102 C 66.0645 -45.4102 67.1875 -46.5332 67.1875 -48.0469 C 67.1875 -49.5605 66.0645 -50.6348 64.502 -50.6348 L 57.5195 -50.6348 L 57.5195 -52.3438 C 57.5195 -55.8594 55.1758 -57.959 51.0742 -57.959 L 45.2637 -57.959 C 41.2109 -57.959 38.8672 -55.8594 38.8672 -52.3438 L 38.8672 -50.6348 L 31.8848 -50.6348 C 30.3223 -50.6348 29.1992 -49.5605 29.1504 -48.0469 C 29.1504 -46.5332 30.3223 -45.4102 31.8848 -45.4102 L 33.6426 -45.4102 L 34.8145 -19.3359 C 35.0098 -15.8691 36.9141 -14.209 40.332 -14.209 Z M 43.8477 -50.6348 L 43.8965 -52.2461 C 43.8965 -53.0762 44.5801 -53.7109 45.459 -53.7109 L 50.8789 -53.7109 C 51.8066 -53.7109 52.4414 -53.0762 52.4902 -52.2461 L 52.4902 -50.6348 Z M 41.9434 -19.5312 C 41.0156 -19.5312 40.4297 -20.1172 40.3809 -21.0449 L 39.7461 -41.6016 C 39.6973 -42.627 40.332 -43.3105 41.3086 -43.3105 C 42.2363 -43.3105 42.8711 -42.6758 42.9199 -41.6992 L 43.5059 -21.0938 C 43.5547 -20.166 42.8711 -19.5312 41.9434 -19.5312 Z M 48.1934 -19.5312 C 47.2168 -19.5312 46.582 -20.1172 46.582 -21.0449 L 46.582 -41.748 C 46.582 -42.6758 47.2168 -43.3105 48.1934 -43.3105 C 49.1699 -43.3105 49.8047 -42.6758 49.8047 -41.748 L 49.8047 -21.0449 C 49.8047 -20.1172 49.1699 -19.5312 48.1934 -19.5312 Z M 54.4434 -19.5312 C 53.4668 -19.5312 52.7832 -20.166 52.832 -21.0938 L 53.4668 -41.6992 C 53.5156 -42.6758 54.1504 -43.3105 55.0781 -43.3105 C 56.0547 -43.3105 56.6406 -42.627 56.5918 -41.6016 L 56.0059 -21.0449 C 55.957 -20.1172 55.3223 -19.5312 54.4434 -19.5312 Z"/>
  </g>
  <g id="Bold-S" transform="matrix(1 0 0 1 2292.44 696)">
   <path d="M 47.5586 5.46875 C 69.873 5.46875 88.2324 -12.8906 88.2324 -35.2051 C 88.2324 -57.5684 69.873 -75.9277 47.5098 -75.9277 C 25.1953 -75.9277 6.83594 -57.5684 6.83594 -35.2051 C 6.83594 -12.8906 25.1953 5.46875 47.5586 5.46875 Z M 47.5586 -5.32227 C 30.957 -5.32227 17.6758 -18.6523 17.6758 -35.2051 C 17.6758 -51.8066 30.957 -65.1367 47.5098 -65.1367 C 64.1113 -65.1367 77.4414 -51.8066 77.4414 -35.2051 C 77.4414 -18.6523 64.1113 -5.32227 47.5586 -5.32227 Z M 39.1113 -13.5254 L 55.8594 -13.5254 C 59.082 -13.5254 60.8398 -15.1367 60.9863 -18.3594 L 62.3047 -46.0938 L 64.0625 -46.0938 C 65.4785 -46.0938 66.5527 -47.168 66.5527 -48.584 C 66.5527 -49.9512 65.4785 -50.9766 64.0625 -50.9766 L 56.6406 -50.9766 L 56.6406 -53.125 C 56.6406 -56.543 54.3945 -58.5449 50.7324 -58.5449 L 44.1895 -58.5449 C 40.5762 -58.5449 38.3301 -56.543 38.3301 -53.125 L 38.3301 -50.9766 L 30.9082 -50.9766 C 29.4922 -50.9766 28.4668 -49.9512 28.418 -48.584 C 28.418 -47.168 29.4922 -46.0938 30.9082 -46.0938 L 32.7148 -46.0938 L 33.9844 -18.3594 C 34.1309 -15.1367 35.9375 -13.5254 39.1113 -13.5254 Z M 43.0664 -50.9766 L 43.1152 -52.7832 C 43.1152 -53.6621 43.7988 -54.248 44.6777 -54.248 L 50.2441 -54.248 C 51.1719 -54.248 51.8555 -53.6621 51.8555 -52.7832 L 51.9043 -50.9766 Z M 40.9668 -18.457 C 40.0391 -18.457 39.4531 -19.0918 39.4043 -20.0195 L 38.7207 -42.2852 C 38.6719 -43.2617 39.3066 -43.9453 40.2832 -43.9453 C 41.2109 -43.9453 41.8457 -43.3105 41.8945 -42.334 L 42.5293 -20.0195 C 42.5781 -19.0918 41.9434 -18.457 40.9668 -18.457 Z M 47.5098 -18.457 C 46.5332 -18.457 45.8496 -19.0918 45.8496 -20.0195 L 45.8496 -42.3828 C 45.8496 -43.3105 46.4844 -43.9453 47.5098 -43.9453 C 48.4863 -43.9453 49.1211 -43.3105 49.1211 -42.3828 L 49.1211 -20.0195 C 49.1211 -19.0918 48.4863 -18.457 47.5098 -18.457 Z M 54.0039 -18.457 C 53.0273 -18.457 52.3926 -19.0918 52.4414 -20.0195 L 53.125 -42.334 C 53.1738 -43.3105 53.7598 -43.9453 54.6875 -43.9453 C 55.7129 -43.9453 56.2988 -43.2617 56.25 -42.2852 L 55.5664 -20.0195 C 55.5176 -19.0918 54.9316 -18.457 54.0039 -18.457 Z"/>
  </g>
  <g id="Semibold-S" transform="matrix(1 0 0 1 1996.2 696)">
   <path d="M 47.0703 4.98047 C 69.0918 4.98047 87.3047 -13.1836 87.3047 -35.2539 C 87.3047 -57.2754 69.0918 -75.4883 47.0215 -75.4883 C 25 -75.4883 6.83594 -57.2754 6.83594 -35.2539 C 6.83594 -13.1836 25.0488 4.98047 47.0703 4.98047 Z M 47.0703 -4.58984 C 30.0781 -4.58984 16.4551 -18.2129 16.4551 -35.2539 C 16.4551 -52.2461 30.0293 -65.8691 47.0215 -65.8691 C 64.0625 -65.8691 77.6855 -52.2461 77.7344 -35.2539 C 77.7344 -18.2129 64.0625 -4.58984 47.0703 -4.58984 Z M 38.2812 -13.0859 L 55.7129 -13.0859 C 58.7891 -13.0859 60.498 -14.6484 60.6445 -17.7246 L 61.9141 -46.582 L 63.7695 -46.582 C 65.0879 -46.582 66.1133 -47.6074 66.1133 -48.9258 C 66.1133 -50.2441 65.0879 -51.2207 63.7695 -51.2207 L 56.0059 -51.2207 L 56.0059 -53.6621 C 56.0059 -56.9824 53.9062 -58.9355 50.4883 -58.9355 L 43.457 -58.9355 C 40.1367 -58.9355 37.9883 -56.9824 37.9883 -53.6621 L 37.9883 -51.2207 L 30.2734 -51.2207 C 28.9551 -51.2207 27.9297 -50.2441 27.9297 -48.9258 C 27.8809 -47.6074 28.9551 -46.582 30.2734 -46.582 L 32.1289 -46.582 L 33.3984 -17.7246 C 33.5449 -14.6484 35.2539 -13.0859 38.2812 -13.0859 Z M 42.5293 -51.2207 L 42.5293 -53.1738 C 42.5781 -54.0527 43.2129 -54.6875 44.1406 -54.6875 L 49.8047 -54.6875 C 50.7812 -54.6875 51.416 -54.0527 51.416 -53.1738 L 51.4648 -51.2207 Z M 40.2832 -17.7246 C 39.3555 -17.7246 38.7695 -18.3594 38.7207 -19.2871 L 37.9883 -42.7246 C 37.9395 -43.7012 38.5742 -44.3848 39.5508 -44.3848 C 40.4785 -44.3848 41.1133 -43.75 41.1621 -42.7734 L 41.8457 -19.3359 C 41.8945 -18.3594 41.2598 -17.7246 40.2832 -17.7246 Z M 47.0215 -17.7246 C 46.0449 -17.7246 45.3613 -18.3594 45.3613 -19.2871 L 45.3613 -42.8223 C 45.3613 -43.75 45.9961 -44.3848 47.0215 -44.3848 C 47.998 -44.3848 48.6328 -43.75 48.6328 -42.8223 L 48.6328 -19.2871 C 48.6328 -18.3594 47.998 -17.7246 47.0215 -17.7246 Z M 53.7109 -17.7246 C 52.7344 -17.7246 52.0996 -18.3594 52.1484 -19.3359 L 52.8809 -42.7734 C 52.9297 -43.75 53.5156 -44.3848 54.4434 -44.3848 C 55.4688 -44.3848 56.1035 -43.7012 56.0547 -42.7246 L 55.3223 -19.2871 C 55.2734 -18.3594 54.6387 -17.7246 53.7109 -17.7246 Z"/>
  </g>
  <g id="Medium-S" transform="matrix(1 0 0 1 1699.83 696)">
   <path d="M 46.7285 4.63867 C 68.5547 4.63867 86.6211 -13.4277 86.6211 -35.2539 C 86.6211 -57.0312 68.5059 -75.1465 46.6797 -75.1465 C 24.8535 -75.1465 6.83594 -57.0312 6.83594 -35.2539 C 6.83594 -13.4277 24.9023 4.63867 46.7285 4.63867 Z M 46.7285 -4.00391 C 29.3945 -4.00391 15.5273 -17.9199 15.5273 -35.2539 C 15.5273 -52.5879 29.3457 -66.4551 46.6797 -66.4551 C 64.0137 -66.4551 77.8809 -52.5879 77.9297 -35.2539 C 77.9785 -17.9199 64.0625 -4.00391 46.7285 -4.00391 Z M 37.6465 -12.7441 L 55.6641 -12.7441 C 58.5938 -12.7441 60.2051 -14.2578 60.3516 -17.2363 L 61.6699 -46.9238 L 63.5254 -46.9238 C 64.7949 -46.9238 65.7715 -47.9492 65.7715 -49.1699 C 65.7715 -50.4395 64.7949 -51.416 63.5254 -51.416 L 55.5664 -51.416 L 55.5664 -54.1016 C 55.5664 -57.3242 53.4668 -59.2285 50.3418 -59.2285 L 42.9199 -59.2285 C 39.7949 -59.2285 37.6953 -57.3242 37.6953 -54.1016 L 37.6953 -51.416 L 29.7363 -51.416 C 28.5156 -51.416 27.5391 -50.4395 27.5391 -49.1699 C 27.4902 -47.9492 28.5156 -46.9238 29.7363 -46.9238 L 31.6406 -46.9238 L 32.959 -17.2363 C 33.1055 -14.2578 34.7168 -12.7441 37.6465 -12.7441 Z M 42.1387 -51.416 L 42.1387 -53.418 C 42.1387 -54.3457 42.8223 -54.9805 43.7012 -54.9805 L 49.5117 -54.9805 C 50.4395 -54.9805 51.123 -54.3457 51.123 -53.418 L 51.123 -51.416 Z M 39.7461 -17.1387 C 38.8672 -17.1387 38.2324 -17.8223 38.1836 -18.75 L 37.4023 -43.1152 C 37.3535 -44.043 38.0371 -44.7266 39.0137 -44.7266 C 39.9414 -44.7266 40.5762 -44.0918 40.625 -43.1152 L 41.3574 -18.7988 C 41.4062 -17.8223 40.7715 -17.1387 39.7461 -17.1387 Z M 46.6309 -17.1387 C 45.6543 -17.1387 44.9707 -17.8223 44.9707 -18.75 L 44.9707 -43.1152 C 44.9707 -44.0918 45.6543 -44.7266 46.6309 -44.7266 C 47.6562 -44.7266 48.291 -44.0918 48.291 -43.1152 L 48.291 -18.75 C 48.291 -17.8223 47.6562 -17.1387 46.6309 -17.1387 Z M 53.5156 -17.1387 C 52.5391 -17.1387 51.9043 -17.8223 51.9531 -18.7988 L 52.6855 -43.1152 C 52.7344 -44.0918 53.3691 -44.7266 54.248 -44.7266 C 55.2734 -44.7266 55.9082 -44.043 55.8594 -43.1152 L 55.0781 -18.75 C 55.0293 -17.8223 54.4434 -17.1387 53.5156 -17.1387 Z"/>
  </g>
  <g id="Regular-S" transform="matrix(1 0 0 1 1403.58 696)">
   <path d="M 46.2402 4.15039 C 67.7734 4.15039 85.6934 -13.7207 85.6934 -35.2539 C 85.6934 -56.7871 67.7246 -74.6582 46.1914 -74.6582 C 24.707 -74.6582 6.83594 -56.7871 6.83594 -35.2539 C 6.83594 -13.7207 24.7559 4.15039 46.2402 4.15039 Z M 46.2402 -3.27148 C 28.5156 -3.27148 14.3555 -17.4805 14.3555 -35.2539 C 14.3555 -53.0273 28.4668 -67.2363 46.1914 -67.2363 C 63.9648 -67.2363 78.1738 -53.0273 78.2227 -35.2539 C 78.2715 -17.4805 64.0137 -3.27148 46.2402 -3.27148 Z M 36.8652 -12.3047 L 55.5176 -12.3047 C 58.3008 -12.3047 59.8633 -13.7207 60.0098 -16.5527 L 61.3281 -47.4121 L 63.2324 -47.4121 C 64.3555 -47.4121 65.332 -48.3887 65.332 -49.5605 C 65.332 -50.7324 64.3555 -51.6602 63.2324 -51.6602 L 54.9805 -51.6602 L 54.9805 -54.6387 C 54.9805 -57.7637 52.9785 -59.6191 50.0977 -59.6191 L 42.1875 -59.6191 C 39.3555 -59.6191 37.3535 -57.7637 37.3535 -54.6387 L 37.3535 -51.6602 L 29.1016 -51.6602 C 27.9785 -51.6602 27.002 -50.7324 27.002 -49.5605 C 27.002 -48.3887 27.9785 -47.4121 29.1016 -47.4121 L 31.0059 -47.4121 L 32.373 -16.5527 C 32.5195 -13.7207 34.0332 -12.3047 36.8652 -12.3047 Z M 41.6016 -51.6602 L 41.6016 -53.8086 C 41.6016 -54.7363 42.2852 -55.3711 43.1641 -55.3711 L 49.0723 -55.3711 C 50.0488 -55.3711 50.6836 -54.7363 50.6836 -53.8086 L 50.6836 -51.6602 Z M 39.1113 -16.4551 C 38.1836 -16.4551 37.5488 -17.0898 37.5 -18.0664 L 36.6699 -43.5547 C 36.6211 -44.5312 37.3047 -45.166 38.3301 -45.166 C 39.209 -45.166 39.8438 -44.5312 39.8926 -43.5547 L 40.6738 -18.0664 C 40.7227 -17.0898 40.0879 -16.4551 39.1113 -16.4551 Z M 46.1914 -16.4551 C 45.166 -16.4551 44.4824 -17.0898 44.4824 -18.0664 L 44.4824 -43.5547 C 44.4824 -44.5312 45.166 -45.166 46.1914 -45.166 C 47.168 -45.166 47.8516 -44.5312 47.8516 -43.5547 L 47.8516 -18.0664 C 47.8516 -17.0898 47.168 -16.4551 46.1914 -16.4551 Z M 53.2227 -16.4551 C 52.2461 -16.4551 51.6113 -17.0898 51.6602 -18.0664 L 52.4414 -43.5547 C 52.4902 -44.5312 53.125 -45.166 54.0039 -45.166 C 55.0293 -45.166 55.7129 -44.5312 55.6641 -43.5547 L 54.834 -18.0664 C 54.7852 -17.0898 54.1504 -16.4551 53.2227 -16.4551 Z"/>
  </g>
  <g id="Light-S" transform="matrix(1 0 0 1 1107.6 696)">
   <path d="M 45.5078 3.4668 C 66.6992 3.4668 84.2285 -14.0625 84.2285 -35.2051 C 84.2285 -56.3965 66.6504 -73.9258 45.5078 -73.9258 C 24.3164 -73.9258 6.83594 -56.3965 6.83594 -35.2051 C 6.83594 -14.0625 24.3652 3.4668 45.5078 3.4668 Z M 45.5078 -2.24609 C 27.2461 -2.24609 12.5977 -16.9434 12.5977 -35.2051 C 12.5977 -53.5156 27.1973 -68.2129 45.5078 -68.2129 C 63.7695 -68.2129 78.4668 -53.5156 78.5156 -35.2051 C 78.5156 -16.9434 63.8184 -2.24609 45.5078 -2.24609 Z M 36.1328 -12.5488 L 54.9805 -12.5488 C 57.5684 -12.5488 59.1797 -14.0625 59.3262 -16.6992 L 60.791 -48.2422 L 63.2812 -48.2422 C 64.209 -48.2422 65.0391 -49.0234 65.0391 -50 C 65.0391 -50.9277 64.209 -51.709 63.2812 -51.709 L 54.2969 -51.709 L 54.2969 -54.9316 C 54.2969 -57.8125 52.3926 -59.668 49.5605 -59.668 L 41.5039 -59.668 C 38.6719 -59.668 36.7676 -57.8125 36.7676 -54.9316 L 36.7676 -51.709 L 27.6855 -51.709 C 26.7578 -51.709 25.9766 -50.9277 25.9766 -50 C 25.9766 -49.0234 26.7578 -48.2422 27.6855 -48.2422 L 30.3223 -48.2422 L 31.7871 -16.6992 C 31.9336 -14.0625 33.5449 -12.5488 36.1328 -12.5488 Z M 40.2344 -51.709 L 40.2344 -54.2969 C 40.2344 -55.4199 41.0156 -56.1035 42.1387 -56.1035 L 48.7793 -56.1035 C 49.9512 -56.1035 50.7324 -55.4199 50.7324 -54.2969 L 50.7324 -51.709 Z M 38.4766 -16.8457 C 37.6465 -16.8457 37.1094 -17.4316 37.0605 -18.2617 L 35.9375 -44.0918 C 35.8887 -44.9219 36.4746 -45.5078 37.4023 -45.5078 C 38.2324 -45.5078 38.7695 -44.9707 38.8184 -44.0918 L 39.8438 -18.3105 C 39.8926 -17.4316 39.3555 -16.8457 38.4766 -16.8457 Z M 45.5078 -16.8945 C 44.6289 -16.8945 43.9941 -17.4805 43.9941 -18.3105 L 43.9941 -44.0918 C 43.9941 -44.9707 44.5801 -45.5078 45.5078 -45.5078 C 46.3867 -45.5078 46.9727 -44.9707 46.9727 -44.0918 L 46.9727 -18.3105 C 46.9727 -17.4805 46.3867 -16.8945 45.5078 -16.8945 Z M 52.5391 -16.8457 C 51.6113 -16.8457 51.0742 -17.4316 51.123 -18.3105 L 52.1484 -44.0918 C 52.1973 -44.9707 52.7832 -45.5078 53.6133 -45.5078 C 54.4922 -45.5078 55.127 -44.9219 55.0781 -44.0918 L 53.9062 -18.2617 C 53.8574 -17.4316 53.3203 -16.8457 52.5391 -16.8457 Z"/>
  </g>
  <g id="Thin-S" transform="matrix(1 0 0 1 811.867 696)">
   <path d="M 44.5801 2.53906 C 65.2832 2.53906 82.2754 -14.4531 82.2754 -35.2051 C 82.2754 -55.9082 65.2344 -72.9004 44.5312 -72.9004 C 23.8281 -72.9004 6.83594 -55.9082 6.83594 -35.2051 C 6.83594 -14.4531 23.877 2.53906 44.5801 2.53906 Z M 44.5801 -0.878906 C 25.5859 -0.878906 10.2539 -16.2109 10.2539 -35.2051 C 10.2539 -54.1504 25.5859 -69.4824 44.5312 -69.4824 C 63.5254 -69.4824 78.8574 -54.1504 78.8574 -35.2051 C 78.8574 -16.2109 63.5254 -0.878906 44.5801 -0.878906 Z M 35.2539 -12.8906 L 54.248 -12.8906 C 56.5918 -12.8906 58.3496 -14.5508 58.4473 -16.8945 L 60.1074 -49.3164 L 63.3301 -49.3164 C 64.0625 -49.3164 64.5996 -49.8535 64.5996 -50.5371 C 64.5996 -51.2207 64.0625 -51.8066 63.3301 -51.8066 L 53.4668 -51.8066 L 53.4668 -55.3223 C 53.4668 -57.8613 51.5625 -59.668 48.8281 -59.668 L 40.625 -59.668 C 37.8418 -59.668 35.9863 -57.8613 35.9863 -55.3223 L 35.9863 -51.8066 L 25.8789 -51.8066 C 25.1953 -51.8066 24.6094 -51.2207 24.6094 -50.5371 C 24.6094 -49.8535 25.1953 -49.3164 25.8789 -49.3164 L 29.3945 -49.3164 L 31.0059 -16.8945 C 31.1035 -14.5508 32.8613 -12.8906 35.2539 -12.8906 Z M 38.4277 -51.8066 L 38.4277 -54.9805 C 38.4277 -56.2988 39.3555 -57.1289 40.7715 -57.1289 L 48.3398 -57.1289 C 49.8047 -57.1289 50.7324 -56.2988 50.7324 -54.9805 L 50.7324 -51.8066 Z M 37.6465 -17.4316 C 36.9629 -17.4316 36.5723 -17.8711 36.5234 -18.5547 L 34.9121 -44.7754 C 34.8633 -45.5078 35.4004 -45.9961 36.1816 -45.9961 C 36.8652 -45.9961 37.3535 -45.5566 37.4023 -44.8242 L 38.7695 -18.6523 C 38.8184 -17.9199 38.4277 -17.4316 37.6465 -17.4316 Z M 44.6289 -17.4805 C 43.8965 -17.4805 43.3594 -17.9688 43.3594 -18.6523 L 43.3594 -44.8242 C 43.3594 -45.5078 43.8477 -45.9961 44.6289 -45.9961 C 45.3613 -45.9961 45.8496 -45.5078 45.8496 -44.8242 L 45.8496 -18.6523 C 45.8496 -17.9688 45.3125 -17.4805 44.6289 -17.4805 Z M 51.5625 -17.4316 C 50.8301 -17.4316 50.3906 -17.9199 50.4395 -18.6523 L 51.8066 -44.8242 C 51.8555 -45.5566 52.3438 -45.9961 53.0273 -45.9961 C 53.8086 -45.9961 54.3457 -45.5078 54.2969 -44.7754 L 52.7344 -18.5547 C 52.6855 -17.8711 52.2461 -17.4316 51.5625 -17.4316 Z"/>
  </g>
  <g id="Ultralight-S" transform="matrix(1 0 0 1 515.644 696)">
   <path d="M 44.043 2.05078 C 64.502 2.05078 81.2988 -14.6973 81.2988 -35.1562 C 81.2988 -55.6152 64.502 -72.3633 44.043 -72.3633 C 23.584 -72.3633 6.83594 -55.6152 6.83594 -35.1562 C 6.83594 -14.6973 23.584 2.05078 44.043 2.05078 Z M 44.043 -0.146484 C 24.7559 -0.146484 9.08203 -15.8691 9.08203 -35.1562 C 9.08203 -54.4434 24.7559 -70.166 44.043 -70.166 C 63.3789 -70.166 79.0527 -54.4434 79.0527 -35.1562 C 79.0527 -15.8691 63.3789 -0.146484 44.043 -0.146484 Z M 34.7656 -13.0859 L 53.8574 -13.0859 C 56.0547 -13.0859 57.9102 -14.7949 58.0078 -16.9922 L 59.7656 -49.8535 L 63.3789 -49.8535 C 63.916 -49.8535 64.4043 -50.293 64.4043 -50.8789 C 64.4043 -51.3672 63.916 -51.8555 63.3789 -51.8555 L 53.0273 -51.8555 L 53.0273 -55.5176 C 53.0273 -57.9102 51.1719 -59.7168 48.4375 -59.7168 L 40.1367 -59.7168 C 37.4023 -59.7168 35.5957 -57.9102 35.5957 -55.5176 L 35.5957 -51.8555 L 24.9023 -51.8555 C 24.3652 -51.8555 23.877 -51.3672 23.877 -50.8789 C 23.877 -50.293 24.3652 -49.8535 24.9023 -49.8535 L 28.9062 -49.8535 L 30.6152 -16.9922 C 30.7129 -14.7949 32.5195 -13.0859 34.7656 -13.0859 Z M 37.4512 -51.8555 L 37.4512 -55.3223 C 37.4512 -56.7383 38.5254 -57.666 40.0391 -57.666 L 48.1445 -57.666 C 49.707 -57.666 50.7812 -56.7383 50.7812 -55.3223 L 50.7812 -51.8555 Z M 37.207 -17.7246 C 36.6211 -17.7246 36.2305 -18.1152 36.1816 -18.7012 L 34.375 -45.1172 C 34.3262 -45.8008 34.8633 -46.2402 35.5469 -46.2402 C 36.1816 -46.2402 36.6211 -45.8984 36.6699 -45.2148 L 38.2324 -18.8477 C 38.2812 -18.1641 37.8906 -17.7246 37.207 -17.7246 Z M 44.1406 -17.8223 C 43.5547 -17.8223 43.0664 -18.2129 43.0664 -18.8477 L 43.0664 -45.166 C 43.0664 -45.8496 43.457 -46.2402 44.1406 -46.2402 C 44.8242 -46.2402 45.2637 -45.8496 45.2637 -45.166 L 45.2637 -18.8477 C 45.2637 -18.2129 44.7754 -17.8223 44.1406 -17.8223 Z M 51.0742 -17.7246 C 50.3906 -17.7246 50.0488 -18.1641 50.0977 -18.8477 L 51.6113 -45.2148 C 51.6602 -45.8984 52.0996 -46.2402 52.7344 -46.2402 C 53.4668 -46.2402 53.9551 -45.8008 53.9062 -45.1172 L 52.0996 -18.7012 C 52.0508 -18.1152 51.709 -17.7246 51.0742 -17.7246 Z"/>
  </g>
 </g>
</svg>
